<svg width="270" height="62" viewBox="0 0 270 62" fill="none" xmlns="http://www.w3.org/2000/svg">
<g clip-path="url(#clip0_61_125)">
<mask id="path-1-outside-1_61_125" maskUnits="userSpaceOnUse" x="3" y="6" width="265" height="52" fill="black">
<rect fill="white" x="3" y="6" width="265" height="52"/>
<path d="M45.8379 11.3652L42.5273 24.8418H41.5605C41.3457 22.7324 40.9648 21.043 40.418 19.7734C39.5977 17.9375 38.5039 16.5215 37.1367 15.5254C35.7891 14.5293 34.3242 14.0312 32.7422 14.0312C31.2188 14.0312 29.8809 14.6172 28.7285 15.7891C27.5957 16.9414 27.0293 18.25 27.0293 19.7148C27.0293 21.1602 27.4199 22.5859 28.2012 23.9922C29.002 25.3789 30.877 27.4785 33.8262 30.291C36.1895 32.5371 37.7715 34.4707 38.5723 36.0918C39.3926 37.7129 39.8027 39.4707 39.8027 41.3652C39.8027 43.4941 39.2363 45.457 38.1035 47.2539C36.9707 49.0508 35.3203 50.4473 33.1523 51.4434C31.0039 52.4199 28.5625 52.9082 25.8281 52.9082C24.1484 52.9082 22.0293 52.6543 19.4707 52.1465C16.9316 51.6582 15.2422 51.4141 14.4023 51.4141C13.7383 51.4141 13.1426 51.5215 12.6152 51.7363C12.0879 51.9316 11.4336 52.3223 10.6523 52.9082H9.50977L13.0547 37.7617H14.168C14.4219 40.418 14.959 42.6836 15.7793 44.5586C16.5996 46.4141 17.7715 47.8691 19.2949 48.9238C20.8184 49.959 22.5566 50.4766 24.5098 50.4766C26.4434 50.4766 28.0547 49.8418 29.3438 48.5723C30.6523 47.2832 31.3066 45.7793 31.3066 44.0605C31.3066 42.5957 30.9355 41.1895 30.1934 39.8418C29.4707 38.4941 27.8008 36.5312 25.1836 33.9531C22.5859 31.375 20.7891 29.0703 19.793 27.0391C19.0703 25.5352 18.709 23.9336 18.709 22.2344C18.709 19.2852 19.8711 16.7363 22.1953 14.5879C24.5195 12.4395 27.5566 11.3652 31.3066 11.3652C33.0059 11.3652 35.2422 11.7461 38.0156 12.5078C39.6367 12.957 40.7793 13.1816 41.4434 13.1816C42.0098 13.1816 42.5176 13.0645 42.9668 12.8301C43.416 12.5762 43.9434 12.0879 44.5488 11.3652H45.8379ZM57.7031 11.3652C58.9141 11.3652 59.9297 11.7852 60.75 12.625C61.5898 13.4648 62.0098 14.4805 62.0098 15.6719C62.0098 16.8633 61.5898 17.8789 60.75 18.7188C59.9102 19.5586 58.8945 19.9785 57.7031 19.9785C56.5312 19.9785 55.5254 19.5586 54.6855 18.7188C53.8457 17.8789 53.4258 16.8633 53.4258 15.6719C53.4258 14.4805 53.8359 13.4648 54.6562 12.625C55.4961 11.7852 56.5117 11.3652 57.7031 11.3652ZM59.5195 24.8418L53.5137 45.6719C53.1816 46.8633 53.0156 47.6445 53.0156 48.0156C53.0156 48.2305 53.1035 48.4355 53.2793 48.6309C53.4551 48.8066 53.6406 48.8945 53.8359 48.8945C54.168 48.8945 54.5 48.748 54.832 48.4551C55.7109 47.7324 56.7656 46.4238 57.9961 44.5293L58.9922 45.1152C56.043 50.252 52.9082 52.8203 49.5879 52.8203C48.3184 52.8203 47.3027 52.4688 46.541 51.7656C45.7988 51.043 45.4277 50.1348 45.4277 49.041C45.4277 48.3184 45.5938 47.4004 45.9258 46.2871L49.998 32.2832C50.3887 30.9355 50.584 29.9199 50.584 29.2363C50.584 28.8066 50.3984 28.4258 50.0273 28.0938C49.6562 27.7617 49.1484 27.5957 48.5039 27.5957C48.2109 27.5957 47.8594 27.6055 47.4492 27.625L47.8301 26.4531L57.7617 24.8418H59.5195ZM76.9512 24.8418L73.3184 37.4102C75.7598 33.7383 77.5859 31.2285 78.7969 29.8809C80.5742 27.9277 82.1074 26.5996 83.3965 25.8965C84.6855 25.1934 85.8965 24.8418 87.0293 24.8418C88.0449 24.8418 88.9141 25.2227 89.6367 25.9844C90.3594 26.7266 90.7207 27.7031 90.7207 28.9141C90.7207 30.0078 90.4863 31.3359 90.0176 32.8984L86.2676 45.4082C85.9551 46.502 85.7988 47.2148 85.7988 47.5469C85.7988 47.7422 85.8672 47.918 86.0039 48.0742C86.1602 48.2305 86.3164 48.3086 86.4727 48.3086C86.668 48.3086 86.873 48.2305 87.0879 48.0742C87.7715 47.5078 88.4648 46.707 89.168 45.6719C89.3438 45.3984 89.627 44.9883 90.0176 44.4414L91.1309 45.1152C88.2598 49.9395 85.2422 52.3516 82.0781 52.3516C80.8672 52.3516 79.9199 52.0391 79.2363 51.4141C78.5527 50.7891 78.2109 50.0078 78.2109 49.0703C78.2109 48.25 78.4453 47.0293 78.9141 45.4082L82.5762 32.8984C82.8301 32.0781 82.957 31.4727 82.957 31.082C82.957 30.8672 82.8691 30.6816 82.6934 30.5254C82.5176 30.3496 82.3125 30.2617 82.0781 30.2617C81.3359 30.2617 80.4375 30.7695 79.3828 31.7852C76.6875 34.3633 74.0801 38.2012 71.5605 43.2988L69.1582 52H61.6875L67.166 33.1914C67.6934 31.3359 67.957 30.0176 67.957 29.2363C67.957 28.9043 67.8789 28.6309 67.7227 28.416C67.5664 28.1816 67.3125 28.0059 66.9609 27.8887C66.6094 27.752 65.9453 27.6836 64.9688 27.6836L65.291 26.5703L75.1641 24.8418H76.9512ZM113.309 11.3652L103.611 44.3535C103.045 46.3066 102.762 47.5273 102.762 48.0156C102.762 48.2695 102.84 48.4844 102.996 48.6602C103.172 48.8359 103.357 48.9238 103.553 48.9238C103.904 48.9238 104.236 48.7871 104.549 48.5137C105.486 47.752 106.531 46.4629 107.684 44.6465L108.826 45.1738C106.971 48.1426 105.145 50.2617 103.348 51.5312C102.117 52.3906 100.809 52.8203 99.4219 52.8203C98.1328 52.8203 97.1074 52.4785 96.3457 51.7949C95.584 51.0918 95.2031 50.252 95.2031 49.2754C95.2031 48.5527 95.4375 47.3906 95.9062 45.7891L103.816 18.7773C104.246 17.293 104.461 16.3066 104.461 15.8184C104.461 15.3496 104.256 14.9785 103.846 14.7051C103.299 14.3145 102.469 14.1484 101.355 14.207L101.678 13.0938L111.551 11.3652H113.309ZM126.961 24.8418L121.277 44.7637C121.004 45.6816 120.867 46.3164 120.867 46.668C120.867 46.8438 120.936 46.9805 121.072 47.0781C121.229 47.2344 121.414 47.3125 121.629 47.3125C122.527 47.3125 123.729 46.5117 125.232 44.9102C127.381 42.5859 129.637 39.2461 132 34.8906L134.666 25.9258L142.078 25.6621L136.453 44.998C135.984 46.6387 135.75 47.5762 135.75 47.8105C135.75 47.9668 135.818 48.1328 135.955 48.3086C136.111 48.4648 136.268 48.543 136.424 48.543C136.697 48.543 136.961 48.4258 137.215 48.1914C137.918 47.625 138.846 46.4824 139.998 44.7637L140.994 45.4668C138.279 50.3691 135.291 52.8203 132.029 52.8203C130.818 52.8203 129.861 52.5176 129.158 51.9121C128.475 51.2871 128.133 50.4766 128.133 49.4805C128.133 48.4258 128.377 47.0879 128.865 45.4668L130.301 40.5156C127.762 44.207 125.916 46.6973 124.764 47.9863C123.006 49.9199 121.521 51.209 120.311 51.8535C119.119 52.498 117.977 52.8203 116.883 52.8203C115.848 52.8203 114.949 52.4395 114.188 51.6777C113.445 50.916 113.074 49.9492 113.074 48.7773C113.074 47.7812 113.318 46.4434 113.807 44.7637L117.117 33.0449C117.664 31.1309 117.938 29.8418 117.938 29.1777C117.938 28.8848 117.859 28.6309 117.703 28.416C117.547 28.1816 117.283 28.0059 116.912 27.8887C116.561 27.752 115.896 27.6836 114.92 27.6836L115.213 26.5703L125.203 24.8418H126.961ZM157.898 11.3652C159.109 11.3652 160.125 11.7852 160.945 12.625C161.785 13.4648 162.205 14.4805 162.205 15.6719C162.205 16.8633 161.785 17.8789 160.945 18.7188C160.105 19.5586 159.09 19.9785 157.898 19.9785C156.727 19.9785 155.721 19.5586 154.881 18.7188C154.041 17.8789 153.621 16.8633 153.621 15.6719C153.621 14.4805 154.031 13.4648 154.852 12.625C155.691 11.7852 156.707 11.3652 157.898 11.3652ZM159.715 24.8418L153.709 45.6719C153.377 46.8633 153.211 47.6445 153.211 48.0156C153.211 48.2305 153.299 48.4355 153.475 48.6309C153.65 48.8066 153.836 48.8945 154.031 48.8945C154.363 48.8945 154.695 48.748 155.027 48.4551C155.906 47.7324 156.961 46.4238 158.191 44.5293L159.188 45.1152C156.238 50.252 153.104 52.8203 149.783 52.8203C148.514 52.8203 147.498 52.4688 146.736 51.7656C145.994 51.043 145.623 50.1348 145.623 49.041C145.623 48.3184 145.789 47.4004 146.121 46.2871L150.193 32.2832C150.584 30.9355 150.779 29.9199 150.779 29.2363C150.779 28.8066 150.594 28.4258 150.223 28.0938C149.852 27.7617 149.344 27.5957 148.699 27.5957C148.406 27.5957 148.055 27.6055 147.645 27.625L148.025 26.4531L157.957 24.8418H159.715ZM190.031 37.72C190.031 38.94 189.751 40.06 189.191 41.08C188.631 42.08 187.771 42.89 186.611 43.51C185.451 44.13 184.011 44.44 182.291 44.44H179.111V52H173.981V30.94H182.291C183.971 30.94 185.391 31.23 186.551 31.81C187.711 32.39 188.581 33.19 189.161 34.21C189.741 35.23 190.031 36.4 190.031 37.72ZM181.901 40.36C182.881 40.36 183.611 40.13 184.091 39.67C184.571 39.21 184.811 38.56 184.811 37.72C184.811 36.88 184.571 36.23 184.091 35.77C183.611 35.31 182.881 35.08 181.901 35.08H179.111V40.36H181.901ZM200.322 52.24C198.682 52.24 197.202 51.89 195.882 51.19C194.582 50.49 193.552 49.49 192.792 48.19C192.052 46.89 191.682 45.37 191.682 43.63C191.682 41.91 192.062 40.4 192.822 39.1C193.582 37.78 194.622 36.77 195.942 36.07C197.262 35.37 198.742 35.02 200.382 35.02C202.022 35.02 203.502 35.37 204.822 36.07C206.142 36.77 207.182 37.78 207.942 39.1C208.702 40.4 209.082 41.91 209.082 43.63C209.082 45.35 208.692 46.87 207.912 48.19C207.152 49.49 206.102 50.49 204.762 51.19C203.442 51.89 201.962 52.24 200.322 52.24ZM200.322 47.8C201.302 47.8 202.132 47.44 202.812 46.72C203.512 46 203.862 44.97 203.862 43.63C203.862 42.29 203.522 41.26 202.842 40.54C202.182 39.82 201.362 39.46 200.382 39.46C199.382 39.46 198.552 39.82 197.892 40.54C197.232 41.24 196.902 42.27 196.902 43.63C196.902 44.97 197.222 46 197.862 46.72C198.522 47.44 199.342 47.8 200.322 47.8ZM216.933 38.05C217.533 37.13 218.283 36.41 219.183 35.89C220.083 35.35 221.083 35.08 222.183 35.08V40.51H220.773C219.493 40.51 218.533 40.79 217.893 41.35C217.253 41.89 216.933 42.85 216.933 44.23V52H211.803V35.26H216.933V38.05ZM233.965 47.65V52H231.355C229.495 52 228.045 51.55 227.005 50.65C225.965 49.73 225.445 48.24 225.445 46.18V39.52H223.405V35.26H225.445V31.18H230.575V35.26H233.935V39.52H230.575V46.24C230.575 46.74 230.695 47.1 230.935 47.32C231.175 47.54 231.575 47.65 232.135 47.65H233.965ZM235.803 43.6C235.803 41.88 236.123 40.37 236.763 39.07C237.423 37.77 238.313 36.77 239.433 36.07C240.553 35.37 241.803 35.02 243.183 35.02C244.363 35.02 245.393 35.26 246.273 35.74C247.173 36.22 247.863 36.85 248.343 37.63V35.26H253.473V52H248.343V49.63C247.843 50.41 247.143 51.04 246.243 51.52C245.363 52 244.333 52.24 243.153 52.24C241.793 52.24 240.553 51.89 239.433 51.19C238.313 50.47 237.423 49.46 236.763 48.16C236.123 46.84 235.803 45.32 235.803 43.6ZM248.343 43.63C248.343 42.35 247.983 41.34 247.263 40.6C246.563 39.86 245.703 39.49 244.683 39.49C243.663 39.49 242.793 39.86 242.073 40.6C241.373 41.32 241.023 42.32 241.023 43.6C241.023 44.88 241.373 45.9 242.073 46.66C242.793 47.4 243.663 47.77 244.683 47.77C245.703 47.77 246.563 47.4 247.263 46.66C247.983 45.92 248.343 44.91 248.343 43.63ZM262.314 29.8V52H257.184V29.8H262.314Z"/>
</mask>
<path d="M45.8379 11.3652L42.5273 24.8418H41.5605C41.3457 22.7324 40.9648 21.043 40.418 19.7734C39.5977 17.9375 38.5039 16.5215 37.1367 15.5254C35.7891 14.5293 34.3242 14.0312 32.7422 14.0312C31.2188 14.0312 29.8809 14.6172 28.7285 15.7891C27.5957 16.9414 27.0293 18.25 27.0293 19.7148C27.0293 21.1602 27.4199 22.5859 28.2012 23.9922C29.002 25.3789 30.877 27.4785 33.8262 30.291C36.1895 32.5371 37.7715 34.4707 38.5723 36.0918C39.3926 37.7129 39.8027 39.4707 39.8027 41.3652C39.8027 43.4941 39.2363 45.457 38.1035 47.2539C36.9707 49.0508 35.3203 50.4473 33.1523 51.4434C31.0039 52.4199 28.5625 52.9082 25.8281 52.9082C24.1484 52.9082 22.0293 52.6543 19.4707 52.1465C16.9316 51.6582 15.2422 51.4141 14.4023 51.4141C13.7383 51.4141 13.1426 51.5215 12.6152 51.7363C12.0879 51.9316 11.4336 52.3223 10.6523 52.9082H9.50977L13.0547 37.7617H14.168C14.4219 40.418 14.959 42.6836 15.7793 44.5586C16.5996 46.4141 17.7715 47.8691 19.2949 48.9238C20.8184 49.959 22.5566 50.4766 24.5098 50.4766C26.4434 50.4766 28.0547 49.8418 29.3438 48.5723C30.6523 47.2832 31.3066 45.7793 31.3066 44.0605C31.3066 42.5957 30.9355 41.1895 30.1934 39.8418C29.4707 38.4941 27.8008 36.5312 25.1836 33.9531C22.5859 31.375 20.7891 29.0703 19.793 27.0391C19.0703 25.5352 18.709 23.9336 18.709 22.2344C18.709 19.2852 19.8711 16.7363 22.1953 14.5879C24.5195 12.4395 27.5566 11.3652 31.3066 11.3652C33.0059 11.3652 35.2422 11.7461 38.0156 12.5078C39.6367 12.957 40.7793 13.1816 41.4434 13.1816C42.0098 13.1816 42.5176 13.0645 42.9668 12.8301C43.416 12.5762 43.9434 12.0879 44.5488 11.3652H45.8379ZM57.7031 11.3652C58.9141 11.3652 59.9297 11.7852 60.75 12.625C61.5898 13.4648 62.0098 14.4805 62.0098 15.6719C62.0098 16.8633 61.5898 17.8789 60.75 18.7188C59.9102 19.5586 58.8945 19.9785 57.7031 19.9785C56.5312 19.9785 55.5254 19.5586 54.6855 18.7188C53.8457 17.8789 53.4258 16.8633 53.4258 15.6719C53.4258 14.4805 53.8359 13.4648 54.6562 12.625C55.4961 11.7852 56.5117 11.3652 57.7031 11.3652ZM59.5195 24.8418L53.5137 45.6719C53.1816 46.8633 53.0156 47.6445 53.0156 48.0156C53.0156 48.2305 53.1035 48.4355 53.2793 48.6309C53.4551 48.8066 53.6406 48.8945 53.8359 48.8945C54.168 48.8945 54.5 48.748 54.832 48.4551C55.7109 47.7324 56.7656 46.4238 57.9961 44.5293L58.9922 45.1152C56.043 50.252 52.9082 52.8203 49.5879 52.8203C48.3184 52.8203 47.3027 52.4688 46.541 51.7656C45.7988 51.043 45.4277 50.1348 45.4277 49.041C45.4277 48.3184 45.5938 47.4004 45.9258 46.2871L49.998 32.2832C50.3887 30.9355 50.584 29.9199 50.584 29.2363C50.584 28.8066 50.3984 28.4258 50.0273 28.0938C49.6562 27.7617 49.1484 27.5957 48.5039 27.5957C48.2109 27.5957 47.8594 27.6055 47.4492 27.625L47.8301 26.4531L57.7617 24.8418H59.5195ZM76.9512 24.8418L73.3184 37.4102C75.7598 33.7383 77.5859 31.2285 78.7969 29.8809C80.5742 27.9277 82.1074 26.5996 83.3965 25.8965C84.6855 25.1934 85.8965 24.8418 87.0293 24.8418C88.0449 24.8418 88.9141 25.2227 89.6367 25.9844C90.3594 26.7266 90.7207 27.7031 90.7207 28.9141C90.7207 30.0078 90.4863 31.3359 90.0176 32.8984L86.2676 45.4082C85.9551 46.502 85.7988 47.2148 85.7988 47.5469C85.7988 47.7422 85.8672 47.918 86.0039 48.0742C86.1602 48.2305 86.3164 48.3086 86.4727 48.3086C86.668 48.3086 86.873 48.2305 87.0879 48.0742C87.7715 47.5078 88.4648 46.707 89.168 45.6719C89.3438 45.3984 89.627 44.9883 90.0176 44.4414L91.1309 45.1152C88.2598 49.9395 85.2422 52.3516 82.0781 52.3516C80.8672 52.3516 79.9199 52.0391 79.2363 51.4141C78.5527 50.7891 78.2109 50.0078 78.2109 49.0703C78.2109 48.25 78.4453 47.0293 78.9141 45.4082L82.5762 32.8984C82.8301 32.0781 82.957 31.4727 82.957 31.082C82.957 30.8672 82.8691 30.6816 82.6934 30.5254C82.5176 30.3496 82.3125 30.2617 82.0781 30.2617C81.3359 30.2617 80.4375 30.7695 79.3828 31.7852C76.6875 34.3633 74.0801 38.2012 71.5605 43.2988L69.1582 52H61.6875L67.166 33.1914C67.6934 31.3359 67.957 30.0176 67.957 29.2363C67.957 28.9043 67.8789 28.6309 67.7227 28.416C67.5664 28.1816 67.3125 28.0059 66.9609 27.8887C66.6094 27.752 65.9453 27.6836 64.9688 27.6836L65.291 26.5703L75.1641 24.8418H76.9512ZM113.309 11.3652L103.611 44.3535C103.045 46.3066 102.762 47.5273 102.762 48.0156C102.762 48.2695 102.84 48.4844 102.996 48.6602C103.172 48.8359 103.357 48.9238 103.553 48.9238C103.904 48.9238 104.236 48.7871 104.549 48.5137C105.486 47.752 106.531 46.4629 107.684 44.6465L108.826 45.1738C106.971 48.1426 105.145 50.2617 103.348 51.5312C102.117 52.3906 100.809 52.8203 99.4219 52.8203C98.1328 52.8203 97.1074 52.4785 96.3457 51.7949C95.584 51.0918 95.2031 50.252 95.2031 49.2754C95.2031 48.5527 95.4375 47.3906 95.9062 45.7891L103.816 18.7773C104.246 17.293 104.461 16.3066 104.461 15.8184C104.461 15.3496 104.256 14.9785 103.846 14.7051C103.299 14.3145 102.469 14.1484 101.355 14.207L101.678 13.0938L111.551 11.3652H113.309ZM126.961 24.8418L121.277 44.7637C121.004 45.6816 120.867 46.3164 120.867 46.668C120.867 46.8438 120.936 46.9805 121.072 47.0781C121.229 47.2344 121.414 47.3125 121.629 47.3125C122.527 47.3125 123.729 46.5117 125.232 44.9102C127.381 42.5859 129.637 39.2461 132 34.8906L134.666 25.9258L142.078 25.6621L136.453 44.998C135.984 46.6387 135.75 47.5762 135.75 47.8105C135.75 47.9668 135.818 48.1328 135.955 48.3086C136.111 48.4648 136.268 48.543 136.424 48.543C136.697 48.543 136.961 48.4258 137.215 48.1914C137.918 47.625 138.846 46.4824 139.998 44.7637L140.994 45.4668C138.279 50.3691 135.291 52.8203 132.029 52.8203C130.818 52.8203 129.861 52.5176 129.158 51.9121C128.475 51.2871 128.133 50.4766 128.133 49.4805C128.133 48.4258 128.377 47.0879 128.865 45.4668L130.301 40.5156C127.762 44.207 125.916 46.6973 124.764 47.9863C123.006 49.9199 121.521 51.209 120.311 51.8535C119.119 52.498 117.977 52.8203 116.883 52.8203C115.848 52.8203 114.949 52.4395 114.188 51.6777C113.445 50.916 113.074 49.9492 113.074 48.7773C113.074 47.7812 113.318 46.4434 113.807 44.7637L117.117 33.0449C117.664 31.1309 117.938 29.8418 117.938 29.1777C117.938 28.8848 117.859 28.6309 117.703 28.416C117.547 28.1816 117.283 28.0059 116.912 27.8887C116.561 27.752 115.896 27.6836 114.92 27.6836L115.213 26.5703L125.203 24.8418H126.961ZM157.898 11.3652C159.109 11.3652 160.125 11.7852 160.945 12.625C161.785 13.4648 162.205 14.4805 162.205 15.6719C162.205 16.8633 161.785 17.8789 160.945 18.7188C160.105 19.5586 159.09 19.9785 157.898 19.9785C156.727 19.9785 155.721 19.5586 154.881 18.7188C154.041 17.8789 153.621 16.8633 153.621 15.6719C153.621 14.4805 154.031 13.4648 154.852 12.625C155.691 11.7852 156.707 11.3652 157.898 11.3652ZM159.715 24.8418L153.709 45.6719C153.377 46.8633 153.211 47.6445 153.211 48.0156C153.211 48.2305 153.299 48.4355 153.475 48.6309C153.65 48.8066 153.836 48.8945 154.031 48.8945C154.363 48.8945 154.695 48.748 155.027 48.4551C155.906 47.7324 156.961 46.4238 158.191 44.5293L159.188 45.1152C156.238 50.252 153.104 52.8203 149.783 52.8203C148.514 52.8203 147.498 52.4688 146.736 51.7656C145.994 51.043 145.623 50.1348 145.623 49.041C145.623 48.3184 145.789 47.4004 146.121 46.2871L150.193 32.2832C150.584 30.9355 150.779 29.9199 150.779 29.2363C150.779 28.8066 150.594 28.4258 150.223 28.0938C149.852 27.7617 149.344 27.5957 148.699 27.5957C148.406 27.5957 148.055 27.6055 147.645 27.625L148.025 26.4531L157.957 24.8418H159.715ZM190.031 37.72C190.031 38.94 189.751 40.06 189.191 41.08C188.631 42.08 187.771 42.89 186.611 43.51C185.451 44.13 184.011 44.44 182.291 44.44H179.111V52H173.981V30.94H182.291C183.971 30.94 185.391 31.23 186.551 31.81C187.711 32.39 188.581 33.19 189.161 34.21C189.741 35.23 190.031 36.4 190.031 37.72ZM181.901 40.36C182.881 40.36 183.611 40.13 184.091 39.67C184.571 39.21 184.811 38.56 184.811 37.72C184.811 36.88 184.571 36.23 184.091 35.77C183.611 35.31 182.881 35.08 181.901 35.08H179.111V40.36H181.901ZM200.322 52.24C198.682 52.24 197.202 51.89 195.882 51.19C194.582 50.49 193.552 49.49 192.792 48.19C192.052 46.89 191.682 45.37 191.682 43.63C191.682 41.91 192.062 40.4 192.822 39.1C193.582 37.78 194.622 36.77 195.942 36.07C197.262 35.37 198.742 35.02 200.382 35.02C202.022 35.02 203.502 35.37 204.822 36.07C206.142 36.77 207.182 37.78 207.942 39.1C208.702 40.4 209.082 41.91 209.082 43.63C209.082 45.35 208.692 46.87 207.912 48.19C207.152 49.49 206.102 50.49 204.762 51.19C203.442 51.89 201.962 52.24 200.322 52.24ZM200.322 47.8C201.302 47.8 202.132 47.44 202.812 46.72C203.512 46 203.862 44.97 203.862 43.63C203.862 42.29 203.522 41.26 202.842 40.54C202.182 39.82 201.362 39.46 200.382 39.46C199.382 39.46 198.552 39.82 197.892 40.54C197.232 41.24 196.902 42.27 196.902 43.63C196.902 44.97 197.222 46 197.862 46.72C198.522 47.44 199.342 47.8 200.322 47.8ZM216.933 38.05C217.533 37.13 218.283 36.41 219.183 35.89C220.083 35.35 221.083 35.08 222.183 35.08V40.51H220.773C219.493 40.51 218.533 40.79 217.893 41.35C217.253 41.89 216.933 42.85 216.933 44.23V52H211.803V35.26H216.933V38.05ZM233.965 47.65V52H231.355C229.495 52 228.045 51.55 227.005 50.65C225.965 49.73 225.445 48.24 225.445 46.18V39.52H223.405V35.26H225.445V31.18H230.575V35.26H233.935V39.52H230.575V46.24C230.575 46.74 230.695 47.1 230.935 47.32C231.175 47.54 231.575 47.65 232.135 47.65H233.965ZM235.803 43.6C235.803 41.88 236.123 40.37 236.763 39.07C237.423 37.77 238.313 36.77 239.433 36.07C240.553 35.37 241.803 35.02 243.183 35.02C244.363 35.02 245.393 35.26 246.273 35.74C247.173 36.22 247.863 36.85 248.343 37.63V35.26H253.473V52H248.343V49.63C247.843 50.41 247.143 51.04 246.243 51.52C245.363 52 244.333 52.24 243.153 52.24C241.793 52.24 240.553 51.89 239.433 51.19C238.313 50.47 237.423 49.46 236.763 48.16C236.123 46.84 235.803 45.32 235.803 43.6ZM248.343 43.63C248.343 42.35 247.983 41.34 247.263 40.6C246.563 39.86 245.703 39.49 244.683 39.49C243.663 39.49 242.793 39.86 242.073 40.6C241.373 41.32 241.023 42.32 241.023 43.6C241.023 44.88 241.373 45.9 242.073 46.66C242.793 47.4 243.663 47.77 244.683 47.77C245.703 47.77 246.563 47.4 247.263 46.66C247.983 45.92 248.343 44.91 248.343 43.63ZM262.314 29.8V52H257.184V29.8H262.314Z" fill="#3F51B5"/>
<path d="M45.8379 11.3652L50.6935 12.558L52.2148 6.36523H45.8379V11.3652ZM42.5273 24.8418V29.8418H46.4477L47.383 26.0346L42.5273 24.8418ZM41.5605 24.8418L36.5863 25.3484L37.0439 29.8418H41.5605V24.8418ZM40.418 19.7734L45.01 17.7953L44.9967 17.7644L44.983 17.7337L40.418 19.7734ZM37.1367 15.5254L34.1648 19.5463L34.1786 19.5565L34.1924 19.5666L37.1367 15.5254ZM28.7285 15.7891L25.1634 12.2834L25.1629 12.2839L28.7285 15.7891ZM28.2012 23.9922L23.8304 26.4204L23.8505 26.4567L23.8713 26.4926L28.2012 23.9922ZM33.8262 30.291L30.3755 33.9094L30.3816 33.9153L33.8262 30.291ZM38.5723 36.0918L34.0894 38.3062L34.1001 38.3278L34.1109 38.3493L38.5723 36.0918ZM33.1523 51.4434L35.2214 55.9952L35.2306 55.991L35.2398 55.9867L33.1523 51.4434ZM19.4707 52.1465L20.4441 47.2421L20.4295 47.2393L20.4149 47.2365L19.4707 52.1465ZM12.6152 51.7363L14.3518 56.4251L14.4272 56.3971L14.5017 56.3668L12.6152 51.7363ZM10.6523 52.9082V57.9082H12.319L13.6523 56.9082L10.6523 52.9082ZM9.50977 52.9082L4.64132 51.7688L3.20444 57.9082H9.50977V52.9082ZM13.0547 37.7617V32.7617H9.08979L8.18625 36.6223L13.0547 37.7617ZM14.168 37.7617L19.1453 37.2859L18.7128 32.7617H14.168V37.7617ZM15.7793 44.5586L11.1985 46.5627L11.2024 46.5715L11.2063 46.5803L15.7793 44.5586ZM19.2949 48.9238L16.4489 53.0348L16.4668 53.0472L16.4848 53.0594L19.2949 48.9238ZM29.3438 48.5723L32.8522 52.1347L32.8526 52.1343L29.3438 48.5723ZM30.1934 39.8418L25.7869 42.2047L25.8001 42.2293L25.8136 42.2538L30.1934 39.8418ZM25.1836 33.9531L21.6614 37.502L21.6681 37.5086L21.6747 37.5151L25.1836 33.9531ZM19.793 27.0391L15.2863 29.2046L15.2949 29.2226L15.3037 29.2405L19.793 27.0391ZM38.0156 12.5078L39.3509 7.68938L39.3398 7.68635L38.0156 12.5078ZM42.9668 12.8301L45.2796 17.263L45.354 17.2242L45.4271 17.1829L42.9668 12.8301ZM44.5488 11.3652V6.36523H42.215L40.7162 8.15414L44.5488 11.3652ZM40.9823 10.1724L37.6717 23.649L47.383 26.0346L50.6935 12.558L40.9823 10.1724ZM42.5273 19.8418H41.5605V29.8418H42.5273V19.8418ZM46.5348 24.3352C46.2928 21.9589 45.8359 19.7125 45.01 17.7953L35.8259 21.7516C36.0938 22.3734 36.3986 23.5059 36.5863 25.3484L46.5348 24.3352ZM44.983 17.7337C43.874 15.2516 42.2766 13.0838 40.081 11.4842L34.1924 19.5666C34.7312 19.9591 35.3214 20.6234 35.8529 21.8131L44.983 17.7337ZM40.1087 11.5045C37.9549 9.91262 35.4597 9.03125 32.7422 9.03125V19.0312C33.1887 19.0312 33.6232 19.146 34.1648 19.5463L40.1087 11.5045ZM32.7422 9.03125C29.7654 9.03125 27.1737 10.239 25.1634 12.2834L32.2936 19.2948C32.4789 19.1063 32.5851 19.0581 32.602 19.0507C32.6144 19.0453 32.6244 19.0421 32.6375 19.0395C32.6511 19.0367 32.6837 19.0312 32.7422 19.0312V9.03125ZM25.1629 12.2839C23.2146 14.2657 22.0293 16.7978 22.0293 19.7148H32.0293C32.0293 19.6729 32.0331 19.6521 32.0344 19.646C32.0356 19.6402 32.0373 19.6335 32.0427 19.6209C32.051 19.6018 32.1023 19.4894 32.2941 19.2943L25.1629 12.2839ZM22.0293 19.7148C22.0293 22.1028 22.6841 24.357 23.8304 26.4204L32.572 21.564C32.1558 20.8148 32.0293 20.2175 32.0293 19.7148H22.0293ZM23.8713 26.4926C25.075 28.5771 27.4524 31.1218 30.3755 33.9094L37.2768 26.6726C34.3015 23.8352 32.9289 22.1807 32.5311 21.4918L23.8713 26.4926ZM30.3816 33.9153C32.6041 36.0275 33.6799 37.4772 34.0894 38.3062L43.0552 33.8774C41.8631 31.4642 39.7748 29.0467 37.2707 26.6668L30.3816 33.9153ZM34.1109 38.3493C34.5618 39.2404 34.8027 40.2205 34.8027 41.3652H44.8027C44.8027 38.721 44.2233 36.1854 43.0336 33.8343L34.1109 38.3493ZM34.8027 41.3652C34.8027 42.5527 34.5022 43.5907 33.8739 44.5874L42.3331 49.9204C43.9704 47.3233 44.8027 44.4356 44.8027 41.3652H34.8027ZM33.8739 44.5874C33.3201 45.4657 32.464 46.2571 31.0648 46.9L35.2398 55.9867C38.1766 54.6374 40.6213 52.6358 42.3331 49.9204L33.8739 44.5874ZM31.0833 46.8915C29.6799 47.5295 27.9613 47.9082 25.8281 47.9082V57.9082C29.1637 57.9082 32.3279 57.3104 35.2214 55.9952L31.0833 46.8915ZM25.8281 47.9082C24.6024 47.9082 22.8371 47.7171 20.4441 47.2421L18.4973 57.0508C21.2215 57.5915 23.6945 57.9082 25.8281 57.9082V47.9082ZM20.4149 47.2365C17.9649 46.7653 15.8012 46.4141 14.4023 46.4141V56.4141C14.393 56.4141 14.4827 56.4147 14.7111 56.4367C14.9275 56.4576 15.2153 56.4925 15.5842 56.5458C16.3241 56.6527 17.2987 56.8204 18.5265 57.0565L20.4149 47.2365ZM14.4023 46.4141C13.1975 46.4141 11.946 46.6099 10.7287 47.1059L14.5017 56.3668C14.4238 56.3985 14.3678 56.4111 14.3448 56.4153C14.3232 56.4192 14.3395 56.4141 14.4023 56.4141V46.4141ZM10.8787 47.0476C9.68534 47.4896 8.5802 48.2123 7.65234 48.9082L13.6523 56.9082C13.9394 56.6929 14.1506 56.5534 14.2921 56.4689C14.4422 56.3793 14.4557 56.3866 14.3518 56.4251L10.8787 47.0476ZM10.6523 47.9082H9.50977V57.9082H10.6523V47.9082ZM14.3782 54.0476L17.9231 38.9011L8.18625 36.6223L4.64132 51.7688L14.3782 54.0476ZM13.0547 42.7617H14.168V32.7617H13.0547V42.7617ZM9.19066 38.2375C9.48052 41.2699 10.1126 44.0807 11.1985 46.5627L20.3601 42.5545C19.8053 41.2865 19.3632 39.566 19.1453 37.2859L9.19066 38.2375ZM11.2063 46.5803C12.3624 49.1953 14.0974 51.4069 16.4489 53.0348L22.141 44.8129C21.4456 44.3314 20.8368 43.6328 20.3523 42.5368L11.2063 46.5803ZM16.4848 53.0594C18.8884 54.6927 21.6183 55.4766 24.5098 55.4766V45.4766C23.495 45.4766 22.7483 45.2253 22.105 44.7882L16.4848 53.0594ZM24.5098 55.4766C27.6565 55.4766 30.559 54.3931 32.8522 52.1347L25.8353 45.0098C25.5503 45.2905 25.2302 45.4766 24.5098 45.4766V55.4766ZM32.8526 52.1343C35.0424 49.9772 36.3066 47.2172 36.3066 44.0605H26.3066C26.3066 44.3414 26.2623 44.5892 25.8349 45.0102L32.8526 52.1343ZM36.3066 44.0605C36.3066 41.7094 35.701 39.4777 34.5731 37.4298L25.8136 42.2538C26.1701 42.9012 26.3066 43.482 26.3066 44.0605H36.3066ZM34.5998 37.4789C33.4822 35.3947 31.3063 32.966 28.6924 30.3911L21.6747 37.5151C24.2952 40.0965 25.4592 41.5936 25.7869 42.2047L34.5998 37.4789ZM28.7058 30.4043C26.2905 28.0072 24.9291 26.1567 24.2822 24.8376L15.3037 29.2405C16.649 31.9839 18.8814 34.7428 21.6614 37.502L28.7058 30.4043ZM24.2997 24.8735C23.9078 24.0581 23.709 23.1981 23.709 22.2344H13.709C13.709 24.669 14.2328 27.0122 15.2863 29.2046L24.2997 24.8735ZM23.709 22.2344C23.709 20.7898 24.205 19.5392 25.5893 18.2595L18.8013 10.9162C15.5372 13.9335 13.709 17.7805 13.709 22.2344H23.709ZM25.5893 18.2595C26.823 17.1191 28.5679 16.3652 31.3066 16.3652V6.36523C26.5454 6.36523 22.2161 7.75979 18.8013 10.9162L25.5893 18.2595ZM31.3066 16.3652C32.3553 16.3652 34.0957 16.6164 36.6914 17.3293L39.3398 7.68635C36.3887 6.87583 33.6564 6.36523 31.3066 6.36523V16.3652ZM36.6804 17.3262C38.2716 17.7672 40.0176 18.1816 41.4434 18.1816V8.18164C41.5891 8.18164 41.5054 8.19605 41.0528 8.10708C40.6475 8.02739 40.0876 7.89355 39.3508 7.68939L36.6804 17.3262ZM41.4434 18.1816C42.7189 18.1816 44.0357 17.912 45.2796 17.263L40.654 8.39715C40.9995 8.21688 41.3007 8.18164 41.4434 8.18164V18.1816ZM45.4271 17.1829C46.6655 16.4829 47.6551 15.4433 48.3814 14.5763L40.7162 8.15414C40.5098 8.40053 40.3721 8.53986 40.3022 8.60463C40.2695 8.63487 40.2665 8.63496 40.2929 8.61489C40.3182 8.59568 40.3897 8.54327 40.5065 8.47726L45.4271 17.1829ZM44.5488 16.3652H45.8379V6.36523H44.5488V16.3652ZM60.75 12.625L57.1731 16.1187L57.1937 16.1397L57.2145 16.1605L60.75 12.625ZM60.75 18.7188L57.2145 15.1832L60.75 18.7188ZM54.6562 12.625L51.1207 9.08947L51.0999 9.11026L51.0794 9.1313L54.6562 12.625ZM59.5195 24.8418L64.3238 26.227L66.1648 19.8418H59.5195V24.8418ZM53.5137 45.6719L48.7094 44.2867L48.7032 44.3081L48.6972 44.3296L53.5137 45.6719ZM53.2793 48.6309L49.5628 51.9757L49.6508 52.0734L49.7438 52.1664L53.2793 48.6309ZM54.832 48.4551L51.6565 44.593L51.5892 44.6483L51.5239 44.7059L54.832 48.4551ZM57.9961 44.5293L60.5312 40.2196L56.4083 37.7944L53.8029 41.8059L57.9961 44.5293ZM58.9922 45.1152L63.3283 47.6048L65.7918 43.3141L61.5273 40.8056L58.9922 45.1152ZM46.541 51.7656L43.0529 55.348L43.1007 55.3945L43.1496 55.4396L46.541 51.7656ZM45.9258 46.2871L50.7172 47.7161L50.7221 47.6997L50.7269 47.6833L45.9258 46.2871ZM49.998 32.2832L54.7992 33.6793L54.8004 33.6752L49.998 32.2832ZM47.4492 27.625L42.694 26.0796L40.4567 32.9636L47.687 32.6193L47.4492 27.625ZM47.8301 26.4531L47.0293 21.5177L44.0179 22.0062L43.0749 24.9077L47.8301 26.4531ZM57.7617 24.8418V19.8418H57.3587L56.961 19.9063L57.7617 24.8418ZM57.7031 16.3652C57.72 16.3652 57.6195 16.3657 57.4626 16.3008C57.3024 16.2346 57.2036 16.1499 57.1731 16.1187L64.3269 9.1313C62.533 7.29472 60.213 6.36523 57.7031 6.36523V16.3652ZM57.2145 16.1605C57.2147 16.1607 57.1941 16.1401 57.1645 16.0964C57.1343 16.052 57.1021 15.9946 57.0742 15.9271C57.0463 15.8595 57.0289 15.7969 57.0191 15.7458C57.0096 15.6957 57.0098 15.6688 57.0098 15.6719H67.0098C67.0098 13.159 66.0663 10.8703 64.2855 9.08947L57.2145 16.1605ZM57.0098 15.6719C57.0098 15.675 57.0096 15.6481 57.0191 15.5979C57.0289 15.5468 57.0463 15.4842 57.0742 15.4167C57.1021 15.3492 57.1343 15.2917 57.1645 15.2473C57.1941 15.2037 57.2147 15.183 57.2145 15.1832L64.2855 22.2543C66.0663 20.4735 67.0098 18.1847 67.0098 15.6719H57.0098ZM57.2145 15.1832C57.2143 15.1834 57.2349 15.1629 57.2786 15.1332C57.323 15.1031 57.3804 15.0709 57.4479 15.0429C57.5155 15.015 57.5781 14.9976 57.6292 14.9879C57.6793 14.9784 57.7062 14.9785 57.7031 14.9785V24.9785C60.216 24.9785 62.5047 24.0351 64.2855 22.2543L57.2145 15.1832ZM57.7031 14.9785C57.7283 14.9785 57.8441 14.9861 57.9961 15.0495C58.1467 15.1124 58.2216 15.1837 58.2211 15.1832L51.15 22.2543C52.9133 24.0176 55.1852 24.9785 57.7031 24.9785V14.9785ZM58.2211 15.1832C58.2209 15.183 58.2414 15.2037 58.2711 15.2473C58.3012 15.2917 58.3334 15.3492 58.3613 15.4167C58.3893 15.4842 58.4067 15.5468 58.4164 15.5979C58.4259 15.6481 58.4258 15.675 58.4258 15.6719H48.4258C48.4258 18.1847 49.3692 20.4735 51.15 22.2543L58.2211 15.1832ZM58.4258 15.6719C58.4258 15.6612 58.4251 15.7514 58.3696 15.8889C58.3135 16.0278 58.2453 16.1062 58.2331 16.1187L51.0794 9.1313C49.3317 10.9206 48.4258 13.1964 48.4258 15.6719H58.4258ZM58.1918 16.1605C58.192 16.1603 58.1713 16.1809 58.1277 16.2105C58.0833 16.2407 58.0258 16.2729 57.9583 16.3008C57.8908 16.3287 57.8282 16.3461 57.7771 16.3559C57.7269 16.3654 57.7 16.3652 57.7031 16.3652V6.36523C55.1903 6.36523 52.9015 7.30867 51.1207 9.08947L58.1918 16.1605ZM54.7152 23.4566L48.7094 44.2867L58.318 47.0571L64.3238 26.227L54.7152 23.4566ZM48.6972 44.3296C48.5166 44.9777 48.3623 45.5806 48.2493 46.1121C48.157 46.5467 48.0156 47.2705 48.0156 48.0156H58.0156C58.0156 48.1487 58.0085 48.2458 58.0043 48.2937C57.9999 48.3447 57.9957 48.373 57.9957 48.3734C57.9954 48.3749 57.9975 48.3604 58.0036 48.3273C58.0096 48.2947 58.0184 48.2496 58.0309 48.1907C58.084 47.9409 58.1787 47.5575 58.3301 47.0142L48.6972 44.3296ZM48.0156 48.0156C48.0156 49.7266 48.7537 51.0767 49.5628 51.9757L56.9958 45.286C57.4533 45.7944 58.0156 46.7343 58.0156 48.0156H48.0156ZM49.7438 52.1664C50.5887 53.0113 51.9777 53.8945 53.8359 53.8945V43.8945C55.3035 43.8945 56.3215 44.602 56.8148 45.0953L49.7438 52.1664ZM53.8359 53.8945C55.7435 53.8945 57.2037 53.0306 58.1401 52.2043L51.5239 44.7059C51.7963 44.4655 52.5925 43.8945 53.8359 43.8945V53.8945ZM58.0076 52.3172C59.5036 51.0871 60.898 49.241 62.1893 47.2527L53.8029 41.8059C52.6333 43.6067 51.9182 44.3778 51.6565 44.593L58.0076 52.3172ZM55.461 48.839L56.4571 49.4249L61.5273 40.8056L60.5312 40.2196L55.461 48.839ZM54.6561 42.6257C51.8949 47.4348 50.0515 47.8203 49.5879 47.8203V57.8203C55.765 57.8203 60.191 53.0691 63.3283 47.6048L54.6561 42.6257ZM49.5879 47.8203C49.4114 47.8203 49.4058 47.7958 49.5096 47.8317C49.5618 47.8498 49.6321 47.88 49.7115 47.9271C49.7914 47.9745 49.8664 48.0307 49.9324 48.0916L43.1496 55.4396C45.032 57.1772 47.3581 57.8203 49.5879 57.8203V47.8203ZM50.0291 48.1833C50.1223 48.274 50.2458 48.4341 50.3346 48.6513C50.421 48.8628 50.4277 49.0138 50.4277 49.041H40.4277C40.4277 51.3999 41.2855 53.627 43.0529 55.348L50.0291 48.1833ZM50.4277 49.041C50.4277 49.0495 50.4281 48.9455 50.4724 48.7004C50.5157 48.461 50.5918 48.1365 50.7172 47.7161L41.1343 44.8581C40.7371 46.1901 40.4277 47.6321 40.4277 49.041H50.4277ZM50.7269 47.6833L54.7992 33.6793L45.1969 30.8871L41.1247 44.891L50.7269 47.6833ZM54.8004 33.6752C55.2146 32.246 55.584 30.6635 55.584 29.2363H45.584C45.584 29.1443 45.5924 29.2289 45.5275 29.5665C45.4669 29.8812 45.3622 30.3168 45.1957 30.8912L54.8004 33.6752ZM55.584 29.2363C55.584 27.1528 54.607 25.4821 53.3613 24.3675L46.6934 31.82C46.4793 31.6285 46.1861 31.3031 45.9499 30.8183C45.7054 30.3165 45.584 29.7691 45.584 29.2363H55.584ZM53.3613 24.3675C51.8297 22.9972 50.0068 22.5957 48.5039 22.5957V32.5957C48.2901 32.5957 47.4828 32.5263 46.6934 31.82L53.3613 24.3675ZM48.5039 22.5957C48.1073 22.5957 47.672 22.6087 47.2114 22.6307L47.687 32.6193C48.0467 32.6022 48.3146 32.5957 48.5039 32.5957V22.5957ZM52.2044 29.1704L52.5852 27.9986L43.0749 24.9077L42.694 26.0796L52.2044 29.1704ZM48.6308 31.3886L58.5625 29.7773L56.961 19.9063L47.0293 21.5177L48.6308 31.3886ZM57.7617 29.8418H59.5195V19.8418H57.7617V29.8418ZM76.9512 24.8418L81.7545 26.2302L83.6011 19.8418H76.9512V24.8418ZM73.3184 37.4102L68.515 36.0218L77.482 40.1785L73.3184 37.4102ZM78.7969 29.8809L75.0988 26.5157L75.0883 26.5273L75.0777 26.539L78.7969 29.8809ZM89.6367 25.9844L86.0094 29.4257L86.0317 29.4492L86.0544 29.4725L89.6367 25.9844ZM90.0176 32.8984L85.2284 31.4617L85.2281 31.4627L90.0176 32.8984ZM86.2676 45.4082L81.4781 43.9725L81.4688 44.0035L81.46 44.0346L86.2676 45.4082ZM86.0039 48.0742L82.241 51.3667L82.3507 51.492L82.4684 51.6098L86.0039 48.0742ZM87.0879 48.0742L90.0287 52.1179L90.1564 52.025L90.278 51.9243L87.0879 48.0742ZM89.168 45.6719L93.3041 48.4813L93.3396 48.4289L93.3739 48.3757L89.168 45.6719ZM90.0176 44.4414L92.6066 40.1639L88.6423 37.7645L85.9489 41.5352L90.0176 44.4414ZM91.1309 45.1152L95.4275 47.6723L97.9657 43.4076L93.7199 40.8377L91.1309 45.1152ZM78.9141 45.4082L74.1154 44.0035L74.1131 44.0114L74.1108 44.0193L78.9141 45.4082ZM82.5762 32.8984L77.7997 31.42L77.7884 31.4568L77.7776 31.4937L82.5762 32.8984ZM82.6934 30.5254L79.1578 34.0609L79.2617 34.1648L79.3715 34.2624L82.6934 30.5254ZM79.3828 31.7852L82.8389 35.3984L82.845 35.3926L82.851 35.3868L79.3828 31.7852ZM71.5605 43.2988L67.0782 41.0834L66.8674 41.5097L66.7409 41.9681L71.5605 43.2988ZM69.1582 52V57H72.9648L73.9779 53.3307L69.1582 52ZM61.6875 52L56.887 50.6017L55.0233 57H61.6875V52ZM67.166 33.1914L71.9665 34.5897L71.9711 34.574L71.9755 34.5583L67.166 33.1914ZM67.7227 28.416L63.5624 31.1895L63.619 31.2744L63.679 31.3569L67.7227 28.416ZM66.9609 27.8887L65.1487 32.5487L65.2632 32.5932L65.3798 32.6321L66.9609 27.8887ZM64.9688 27.6836L60.1659 26.2933L58.3161 32.6836H64.9688V27.6836ZM65.291 26.5703L64.4288 21.6452L61.3557 22.1832L60.4882 25.18L65.291 26.5703ZM75.1641 24.8418V19.8418H74.7297L74.3018 19.9167L75.1641 24.8418ZM72.1478 23.4534L68.515 36.0218L78.1217 38.7985L81.7545 26.2302L72.1478 23.4534ZM77.482 40.1785C79.9252 36.5041 81.5743 34.2708 82.516 33.2227L75.0777 26.539C73.5976 28.1863 71.5944 30.9725 69.1547 34.6418L77.482 40.1785ZM82.4949 33.2461C84.1468 31.4308 85.2341 30.5896 85.7907 30.286L81.0022 21.507C78.9808 22.6096 77.0017 24.4247 75.0988 26.5157L82.4949 33.2461ZM85.7907 30.286C86.5567 29.8681 86.9447 29.8418 87.0293 29.8418V19.8418C84.8483 19.8418 82.8144 20.5186 81.0022 21.507L85.7907 30.286ZM87.0293 29.8418C86.8956 29.8418 86.6778 29.813 86.4361 29.707C86.198 29.6027 86.0579 29.4768 86.0094 29.4257L93.264 22.5431C91.6333 20.8241 89.4681 19.8418 87.0293 19.8418V29.8418ZM86.0544 29.4725C85.9257 29.3403 85.8209 29.172 85.7604 29.0085C85.7051 28.8589 85.7207 28.806 85.7207 28.9141H95.7207C95.7207 26.6367 95.0034 24.3289 93.2191 22.4963L86.0544 29.4725ZM85.7207 28.9141C85.7207 29.3454 85.6189 30.1601 85.2284 31.4617L94.8067 34.3352C95.3537 32.5118 95.7207 30.6702 95.7207 28.9141H85.7207ZM85.2281 31.4627L81.4781 43.9725L91.057 46.8439L94.807 34.3341L85.2281 31.4627ZM81.46 44.0346C81.289 44.6331 81.1411 45.1948 81.032 45.6927C80.9459 46.0855 80.7988 46.8 80.7988 47.5469H90.7988C90.7988 47.6937 90.7906 47.8029 90.7854 47.8598C90.7799 47.9201 90.7744 47.9574 90.7731 47.9659C90.7712 47.979 90.7767 47.9402 90.8001 47.8337C90.8472 47.6187 90.9337 47.277 91.0752 46.7818L81.46 44.0346ZM80.7988 47.5469C80.7988 49.0338 81.3614 50.3615 82.241 51.3667L89.7668 44.7817C90.373 45.4745 90.7988 46.4506 90.7988 47.5469H80.7988ZM82.4684 51.6098C83.1696 52.311 84.5226 53.3086 86.4727 53.3086V43.3086C88.1102 43.3086 89.1507 44.15 89.5394 44.5387L82.4684 51.6098ZM86.4727 53.3086C88.0456 53.3086 89.2617 52.6757 90.0287 52.1179L84.147 44.0305C84.4844 43.7852 85.2903 43.3086 86.4727 43.3086V53.3086ZM90.278 51.9243C91.4389 50.9624 92.4353 49.7603 93.3041 48.4813L85.0319 42.8625C84.4944 43.6538 84.1041 44.0532 83.8978 44.2241L90.278 51.9243ZM93.3739 48.3757C93.4802 48.2102 93.7043 47.8824 94.0862 47.3476L85.9489 41.5352C85.5496 42.0942 85.2073 42.5866 84.9621 42.9681L93.3739 48.3757ZM87.4286 48.7189L88.5418 49.3927L93.7199 40.8377L92.6066 40.1639L87.4286 48.7189ZM86.8342 42.5581C84.1647 47.0436 82.4443 47.3516 82.0781 47.3516V57.3516C88.0401 57.3516 92.3548 52.8353 95.4275 47.6723L86.8342 42.5581ZM82.0781 47.3516C81.8949 47.3516 81.8994 47.3271 82.0259 47.3689C82.1704 47.4166 82.3918 47.5243 82.6102 47.7239L75.8625 55.1042C77.7221 56.8045 80.0124 57.3516 82.0781 57.3516V47.3516ZM82.6102 47.7239C82.7391 47.8418 82.9155 48.0522 83.0481 48.3553C83.1801 48.6569 83.2109 48.9183 83.2109 49.0703H73.2109C73.2109 51.3921 74.1286 53.5189 75.8625 55.1042L82.6102 47.7239ZM83.2109 49.0703C83.2109 49.0937 83.2124 48.9232 83.297 48.4823C83.3773 48.0644 83.5115 47.5087 83.7173 46.7971L74.1108 44.0193C73.6189 45.7206 73.2109 47.5075 73.2109 49.0703H83.2109ZM83.7127 46.8129L87.3748 34.3032L77.7776 31.4937L74.1154 44.0035L83.7127 46.8129ZM87.3526 34.3769C87.6208 33.5103 87.957 32.2839 87.957 31.082H77.957C77.957 30.9187 77.9696 30.8125 77.9733 30.7831C77.9776 30.7494 77.9786 30.7535 77.9682 30.803C77.9463 30.9076 77.8968 31.1063 77.7997 31.42L87.3526 34.3769ZM87.957 31.082C87.957 29.294 87.145 27.7927 86.0152 26.7883L79.3715 34.2624C79.0299 33.9587 78.655 33.5186 78.3724 32.9222C78.0847 32.3147 77.957 31.6797 77.957 31.082H87.957ZM86.2289 26.9899C85.1786 25.9395 83.7253 25.2617 82.0781 25.2617V35.2617C81.553 35.2617 80.9892 35.1595 80.4381 34.9234C79.8928 34.6897 79.4685 34.3715 79.1578 34.0609L86.2289 26.9899ZM82.0781 25.2617C79.2554 25.2617 77.1133 27.0292 75.9146 28.1836L82.851 35.3868C83.0115 35.2322 83.1343 35.1277 83.2197 35.0612C83.3064 34.9935 83.3356 34.9798 83.3079 34.9954C83.2815 35.0103 83.1673 35.0725 82.9706 35.1334C82.7703 35.1954 82.4653 35.2617 82.0781 35.2617V25.2617ZM75.9267 28.1719C72.6502 31.306 69.7347 35.7085 67.0782 41.0834L76.0429 45.5143C78.4254 40.6938 80.7248 37.4206 82.8389 35.3984L75.9267 28.1719ZM66.7409 41.9681L64.3385 50.6693L73.9779 53.3307L76.3802 44.6295L66.7409 41.9681ZM69.1582 47H61.6875V57H69.1582V47ZM66.488 53.3983L71.9665 34.5897L62.3655 31.7931L56.887 50.6017L66.488 53.3983ZM71.9755 34.5583C72.4979 32.7203 72.957 30.7925 72.957 29.2363H62.957C62.957 29.1453 62.9627 29.299 62.8564 29.8305C62.759 30.3174 62.598 30.9746 62.3565 31.8245L71.9755 34.5583ZM72.957 29.2363C72.957 28.1146 72.6847 26.7379 71.7663 25.4752L63.679 31.3569C63.0731 30.5239 62.957 29.694 62.957 29.2363H72.957ZM71.8829 25.6425C70.9397 24.2277 69.6149 23.5028 68.5421 23.1453L65.3798 32.6321C65.0101 32.5089 64.1931 32.1356 63.5624 31.1895L71.8829 25.6425ZM68.7732 23.2286C67.4362 22.7087 65.8797 22.6836 64.9688 22.6836V32.6836C65.156 32.6836 65.3102 32.6869 65.4344 32.6921C65.56 32.6973 65.642 32.7039 65.6872 32.7086C65.736 32.7136 65.7174 32.7138 65.649 32.7C65.6127 32.6927 65.5525 32.6794 65.4734 32.6574C65.3954 32.6357 65.2839 32.6013 65.1487 32.5487L68.7732 23.2286ZM69.7716 29.0739L70.0938 27.9606L60.4882 25.18L60.1659 26.2933L69.7716 29.0739ZM66.1533 31.4954L76.0263 29.7669L74.3018 19.9167L64.4288 21.6452L66.1533 31.4954ZM75.1641 29.8418H76.9512V19.8418H75.1641V29.8418ZM113.309 11.3652L118.106 12.7754L119.99 6.36523H113.309V11.3652ZM103.611 44.3535L98.8143 42.9434L98.8117 42.9521L98.8092 42.9609L103.611 44.3535ZM102.996 48.6602L99.259 51.982L99.3567 52.0918L99.4606 52.1957L102.996 48.6602ZM104.549 48.5137L101.396 44.6331L101.325 44.6907L101.256 44.7508L104.549 48.5137ZM107.684 44.6465L109.779 40.1067L105.806 38.2729L103.462 41.968L107.684 44.6465ZM108.826 45.1738L113.066 47.8238L116.074 43.0119L110.921 40.634L108.826 45.1738ZM103.348 51.5312L106.211 55.6305L106.222 55.6227L106.233 55.6149L103.348 51.5312ZM96.3457 51.7949L92.9543 55.4689L92.9801 55.4927L93.0062 55.5161L96.3457 51.7949ZM95.9062 45.7891L91.1078 44.3839L91.1076 44.3846L95.9062 45.7891ZM103.816 18.7773L108.615 20.1825L108.617 20.1751L108.619 20.1676L103.816 18.7773ZM103.846 14.7051L100.94 18.7737L101.005 18.8206L101.072 18.8653L103.846 14.7051ZM101.355 14.207L96.5526 12.8167L94.5979 19.5696L101.618 19.2001L101.355 14.207ZM101.678 13.0938L100.815 8.16866L97.7424 8.70668L96.8749 11.7035L101.678 13.0938ZM111.551 11.3652V6.36523H111.116L110.689 6.44014L111.551 11.3652ZM108.512 9.95509L98.8143 42.9434L108.408 45.7637L118.106 12.7754L108.512 9.95509ZM98.8092 42.9609C98.5142 43.9782 98.2741 44.8685 98.1035 45.6039C97.9688 46.1845 97.7617 47.1281 97.7617 48.0156H107.762C107.762 48.2995 107.728 48.4456 107.748 48.3295C107.76 48.2555 107.788 48.1068 107.845 47.8639C107.957 47.3786 108.142 46.682 108.413 45.7461L98.8092 42.9609ZM97.7617 48.0156C97.7617 49.3883 98.2216 50.8149 99.259 51.982L106.733 45.3383C107.062 45.7087 107.336 46.1551 107.519 46.6585C107.7 47.1559 107.762 47.624 107.762 48.0156H97.7617ZM99.4606 52.1957C100.305 53.0406 101.695 53.9238 103.553 53.9238V43.9238C105.02 43.9238 106.038 44.6313 106.532 45.1246L99.4606 52.1957ZM103.553 53.9238C105.328 53.9238 106.791 53.1952 107.841 52.2766L101.256 44.7508C101.681 44.379 102.48 43.9238 103.553 43.9238V53.9238ZM107.702 52.3942C109.264 51.1248 110.653 49.2998 111.906 47.325L103.462 41.968C102.41 43.626 101.708 44.3791 101.396 44.6331L107.702 52.3942ZM105.588 49.1863L106.731 49.7136L110.921 40.634L109.779 40.1067L105.588 49.1863ZM104.586 42.5238C102.899 45.2241 101.491 46.7207 100.462 47.4476L106.233 55.6149C108.798 53.8027 111.043 51.0611 113.066 47.8238L104.586 42.5238ZM100.485 47.432C100.021 47.7558 99.6994 47.8203 99.4219 47.8203V57.8203C101.918 57.8203 104.213 57.0254 106.211 55.6305L100.485 47.432ZM99.4219 47.8203C99.2142 47.8203 99.1827 47.7924 99.2672 47.8205C99.3106 47.835 99.3763 47.8616 99.4548 47.9067C99.5339 47.9521 99.6126 48.0085 99.6853 48.0737L93.0062 55.5161C94.9054 57.2206 97.2317 57.8203 99.4219 57.8203V47.8203ZM99.7371 48.1209C99.7864 48.1664 99.9246 48.3128 100.042 48.5727C100.163 48.8394 100.203 49.0942 100.203 49.2754H90.2031C90.2031 51.7411 91.2381 53.8847 92.9543 55.4689L99.7371 48.1209ZM100.203 49.2754C100.203 49.3886 100.193 49.2842 100.28 48.8503C100.36 48.4528 100.496 47.9076 100.705 47.1936L91.1076 44.3846C90.6336 46.0041 90.2031 47.7714 90.2031 49.2754H100.203ZM100.705 47.1943L108.615 20.1825L99.0179 17.3721L91.1078 44.3839L100.705 47.1943ZM108.619 20.1676C108.851 19.3677 109.045 18.6324 109.185 17.9885C109.306 17.4336 109.461 16.6276 109.461 15.8184H99.4609C99.4609 15.6089 99.481 15.5013 99.4729 15.5571C99.4675 15.5942 99.4513 15.6904 99.4144 15.8602C99.3398 16.2025 99.2117 16.7026 99.0136 17.3871L108.619 20.1676ZM109.461 15.8184C109.461 13.5773 108.335 11.6884 106.619 10.5448L101.072 18.8653C100.72 18.6304 100.274 18.2277 99.9309 17.6069C99.5823 16.9761 99.4609 16.3387 99.4609 15.8184H109.461ZM106.752 10.6364C104.849 9.27721 102.652 9.13186 101.093 9.21394L101.618 19.2001C101.882 19.1863 101.932 19.2104 101.832 19.1905C101.728 19.1696 101.371 19.0817 100.94 18.7737L106.752 10.6364ZM106.158 15.5973L106.481 14.484L96.8749 11.7035L96.5526 12.8167L106.158 15.5973ZM102.54 18.0188L112.413 16.2903L110.689 6.44014L100.815 8.16866L102.54 18.0188ZM111.551 16.3652H113.309V6.36523H111.551V16.3652ZM126.961 24.8418L131.769 26.2135L133.587 19.8418H126.961V24.8418ZM121.277 44.7637L126.069 46.1911L126.078 46.1633L126.085 46.1354L121.277 44.7637ZM121.072 47.0781L124.608 43.5426L124.315 43.25L123.978 43.0095L121.072 47.0781ZM125.232 44.9102L128.877 48.3328L128.891 48.3185L128.904 48.3041L125.232 44.9102ZM132 34.8906L136.395 37.2752L136.644 36.8163L136.793 36.3159L132 34.8906ZM134.666 25.9258L134.488 20.9289L130.898 21.0567L129.873 24.5005L134.666 25.9258ZM142.078 25.6621L146.879 27.0588L148.811 20.4195L141.9 20.6653L142.078 25.6621ZM136.453 44.998L131.652 43.6014L131.649 43.6129L131.646 43.6244L136.453 44.998ZM135.955 48.3086L132.008 51.3783L132.199 51.624L132.42 51.8441L135.955 48.3086ZM137.215 48.1914L134.078 44.2976L133.947 44.4032L133.823 44.5174L137.215 48.1914ZM139.998 44.7637L142.881 40.6788L138.697 37.7252L135.845 41.9793L139.998 44.7637ZM140.994 45.4668L145.368 47.8891L147.54 43.9673L143.878 41.382L140.994 45.4668ZM129.158 51.9121L125.784 55.6023L125.839 55.6524L125.896 55.701L129.158 51.9121ZM128.865 45.4668L133.653 46.9088L133.66 46.884L133.667 46.8592L128.865 45.4668ZM130.301 40.5156L135.103 41.908L126.181 37.6821L130.301 40.5156ZM124.764 47.9863L128.463 51.3497L128.477 51.3342L128.491 51.3187L124.764 47.9863ZM120.311 51.8535L117.961 47.4398L117.946 47.4477L117.931 47.4558L120.311 51.8535ZM114.188 51.6777L110.606 55.1671L110.629 55.1903L110.652 55.2133L114.188 51.6777ZM113.807 44.7637L118.608 46.1594L118.613 46.1412L118.618 46.123L113.807 44.7637ZM117.117 33.0449L112.31 31.6713L112.308 31.6785L112.306 31.6856L117.117 33.0449ZM117.703 28.416L113.543 31.1895L113.599 31.2744L113.659 31.3569L117.703 28.416ZM116.912 27.8887L115.1 32.5487L115.251 32.6076L115.406 32.6566L116.912 27.8887ZM114.92 27.6836L110.085 26.4111L108.434 32.6836H114.92V27.6836ZM115.213 26.5703L114.36 21.6435L111.195 22.1912L110.378 25.2978L115.213 26.5703ZM125.203 24.8418V19.8418H124.774L124.351 19.915L125.203 24.8418ZM122.153 23.4701L116.469 43.3919L126.085 46.1354L131.769 26.2135L122.153 23.4701ZM116.485 43.3363C116.233 44.1821 115.867 45.4843 115.867 46.668H125.867C125.867 46.8823 125.848 47.0189 125.845 47.0377C125.841 47.0676 125.842 47.0526 125.858 46.981C125.889 46.8335 125.954 46.5785 126.069 46.1911L116.485 43.3363ZM115.867 46.668C115.867 48.3704 116.645 50.0605 118.166 51.1468L123.978 43.0095C124.507 43.3867 125.025 43.9348 125.391 44.6663C125.752 45.3896 125.867 46.0964 125.867 46.668H115.867ZM117.537 50.6137C118.601 51.6777 120.046 52.3125 121.629 52.3125V42.3125C122.143 42.3125 122.707 42.4092 123.269 42.6457C123.828 42.8811 124.273 43.2081 124.608 43.5426L117.537 50.6137ZM121.629 52.3125C123.498 52.3125 125.01 51.5169 125.977 50.8722C127.014 50.1807 127.985 49.2836 128.877 48.3328L121.588 41.4875C121.294 41.8001 121.045 42.0412 120.841 42.2226C120.634 42.4064 120.498 42.5065 120.43 42.5517C120.357 42.6002 120.409 42.5548 120.578 42.4906C120.747 42.426 121.113 42.3125 121.629 42.3125V52.3125ZM128.904 48.3041C131.446 45.5537 133.931 41.8151 136.395 37.2752L127.605 32.506C125.342 36.6771 123.315 39.6181 121.561 41.5162L128.904 48.3041ZM136.793 36.3159L139.459 27.351L129.873 24.5005L127.207 33.4654L136.793 36.3159ZM134.844 30.9226L142.256 30.6589L141.9 20.6653L134.488 20.9289L134.844 30.9226ZM137.277 24.2655L131.652 43.6014L141.254 46.3947L146.879 27.0588L137.277 24.2655ZM131.646 43.6244C131.405 44.4645 131.212 45.1706 131.075 45.719C131.007 45.9897 130.942 46.2657 130.891 46.5223C130.866 46.6461 130.75 47.1965 130.75 47.8105H140.75C140.75 48.1313 140.716 48.3624 140.711 48.3968C140.701 48.4673 140.693 48.5019 140.697 48.4835C140.704 48.4472 140.727 48.3423 140.776 48.1443C140.874 47.7552 141.032 47.1722 141.261 46.3717L131.646 43.6244ZM130.75 47.8105C130.75 49.4648 131.472 50.6882 132.008 51.3783L139.902 45.2389C140.165 45.5774 140.75 46.4688 140.75 47.8105H130.75ZM132.42 51.8441C133.121 52.5454 134.474 53.543 136.424 53.543V43.543C138.061 43.543 139.102 44.3843 139.491 44.7731L132.42 51.8441ZM136.424 53.543C138.261 53.543 139.682 52.7186 140.606 51.8654L133.823 44.5174C134.24 44.133 135.134 43.543 136.424 43.543V53.543ZM140.351 52.0852C141.699 50.9996 142.986 49.2864 144.151 47.5481L135.845 41.9793C135.323 42.7585 134.895 43.3415 134.556 43.758C134.194 44.204 134.04 44.3287 134.078 44.2976L140.351 52.0852ZM137.115 48.8485L138.111 49.5516L143.878 41.382L142.881 40.6788L137.115 48.8485ZM136.62 43.0445C134.134 47.5343 132.439 47.8203 132.029 47.8203V57.8203C138.143 57.8203 142.425 53.204 145.368 47.8891L136.62 43.0445ZM132.029 47.8203C131.833 47.8203 131.813 47.7951 131.911 47.8261C132.025 47.8619 132.219 47.9495 132.421 48.1233L125.896 55.701C127.753 57.3004 129.993 57.8203 132.029 57.8203V47.8203ZM132.532 48.222C132.694 48.3698 132.872 48.5983 132.996 48.8927C133.117 49.1785 133.133 49.3992 133.133 49.4805H123.133C123.133 51.7616 123.98 53.9527 125.784 55.6023L132.532 48.222ZM133.133 49.4805C133.133 49.118 133.231 48.3086 133.653 46.9088L124.078 44.0248C123.523 45.8672 123.133 47.7336 123.133 49.4805H133.133ZM133.667 46.8592L135.103 41.908L125.499 39.1233L124.063 44.0744L133.667 46.8592ZM126.181 37.6821C123.632 41.3883 121.95 43.6319 121.036 44.654L128.491 51.3187C129.882 49.7627 131.892 47.0257 134.42 43.3492L126.181 37.6821ZM121.064 44.623C119.409 46.444 118.393 47.2102 117.961 47.4398L122.66 56.2672C124.65 55.2078 126.603 53.3959 128.463 51.3497L121.064 44.623ZM117.931 47.4558C117.299 47.798 116.97 47.8203 116.883 47.8203V57.8203C118.983 57.8203 120.939 57.1981 122.69 56.2512L117.931 47.4558ZM116.883 47.8203C116.994 47.8203 117.179 47.8443 117.384 47.9312C117.585 48.0165 117.697 48.1159 117.723 48.1422L110.652 55.2133C112.309 56.8702 114.463 57.8203 116.883 57.8203V47.8203ZM117.769 48.1884C117.858 48.2803 117.956 48.4219 118.02 48.5896C118.081 48.7483 118.074 48.8307 118.074 48.7773H108.074C108.074 51.1075 108.858 53.3725 110.606 55.1671L117.769 48.1884ZM118.074 48.7773C118.074 48.4804 118.168 47.6726 118.608 46.1594L109.005 43.368C108.469 45.2141 108.074 47.0821 108.074 48.7773H118.074ZM118.618 46.123L121.929 34.4042L112.306 31.6856L108.995 43.4044L118.618 46.123ZM121.925 34.4185C122.438 32.6224 122.938 30.6591 122.938 29.1777H112.938C112.938 29.0299 112.95 28.9865 112.935 29.0997C112.921 29.1976 112.893 29.3616 112.841 29.6051C112.737 30.0953 112.566 30.7755 112.31 31.6713L121.925 34.4185ZM122.938 29.1777C122.938 27.9422 122.589 26.6325 121.747 25.4752L113.659 31.3569C113.13 30.6292 112.938 29.8273 112.938 29.1777H122.938ZM121.863 25.6425C120.872 24.1558 119.465 23.4515 118.418 23.1208L115.406 32.6566C115.101 32.5602 114.222 32.2075 113.543 31.1895L121.863 25.6425ZM118.724 23.2286C117.387 22.7087 115.831 22.6836 114.92 22.6836V32.6836C115.107 32.6836 115.261 32.6869 115.386 32.6921C115.511 32.6973 115.593 32.7039 115.638 32.7086C115.687 32.7136 115.669 32.7138 115.6 32.7C115.564 32.6927 115.504 32.6794 115.425 32.6574C115.347 32.6357 115.235 32.6013 115.1 32.5487L118.724 23.2286ZM119.755 28.9561L120.048 27.8428L110.378 25.2978L110.085 26.4111L119.755 28.9561ZM116.065 31.4971L126.056 29.7686L124.351 19.915L114.36 21.6435L116.065 31.4971ZM125.203 29.8418H126.961V19.8418H125.203V29.8418ZM160.945 12.625L157.368 16.1187L157.389 16.1397L157.41 16.1605L160.945 12.625ZM160.945 18.7188L157.41 15.1832L160.945 18.7188ZM154.852 12.625L151.316 9.08947L151.295 9.11026L151.275 9.1313L154.852 12.625ZM159.715 24.8418L164.519 26.227L166.36 19.8418H159.715V24.8418ZM153.709 45.6719L148.905 44.2867L148.899 44.3081L148.893 44.3296L153.709 45.6719ZM153.475 48.6309L149.758 51.9757L149.846 52.0734L149.939 52.1664L153.475 48.6309ZM155.027 48.4551L151.852 44.593L151.785 44.6483L151.719 44.7059L155.027 48.4551ZM158.191 44.5293L160.727 40.2196L156.604 37.7944L153.998 41.8059L158.191 44.5293ZM159.188 45.1152L163.524 47.6048L165.987 43.3141L161.723 40.8056L159.188 45.1152ZM146.736 51.7656L143.248 55.348L143.296 55.3945L143.345 55.4396L146.736 51.7656ZM146.121 46.2871L150.913 47.7161L150.917 47.6997L150.922 47.6833L146.121 46.2871ZM150.193 32.2832L154.994 33.6793L154.996 33.6752L150.193 32.2832ZM147.645 27.625L142.889 26.0796L140.652 32.9636L147.882 32.6193L147.645 27.625ZM148.025 26.4531L147.225 21.5177L144.213 22.0062L143.27 24.9077L148.025 26.4531ZM157.957 24.8418V19.8418H157.554L157.156 19.9063L157.957 24.8418ZM157.898 16.3652C157.915 16.3652 157.815 16.3657 157.658 16.3008C157.498 16.2346 157.399 16.1499 157.368 16.1187L164.522 9.1313C162.728 7.29472 160.408 6.36523 157.898 6.36523V16.3652ZM157.41 16.1605C157.41 16.1607 157.389 16.1401 157.36 16.0964C157.33 16.052 157.297 15.9946 157.27 15.9271C157.242 15.8595 157.224 15.7969 157.214 15.7458C157.205 15.6957 157.205 15.6688 157.205 15.6719H167.205C167.205 13.159 166.262 10.8703 164.481 9.08947L157.41 16.1605ZM157.205 15.6719C157.205 15.675 157.205 15.6481 157.214 15.5979C157.224 15.5468 157.242 15.4842 157.27 15.4167C157.297 15.3492 157.33 15.2917 157.36 15.2473C157.389 15.2037 157.41 15.183 157.41 15.1832L164.481 22.2543C166.262 20.4735 167.205 18.1847 167.205 15.6719H157.205ZM157.41 15.1832C157.41 15.1834 157.43 15.1629 157.474 15.1332C157.518 15.1031 157.576 15.0709 157.643 15.0429C157.711 15.015 157.773 14.9976 157.824 14.9879C157.875 14.9784 157.902 14.9785 157.898 14.9785V24.9785C160.411 24.9785 162.7 24.0351 164.481 22.2543L157.41 15.1832ZM157.898 14.9785C157.924 14.9785 158.039 14.9861 158.191 15.0495C158.342 15.1124 158.417 15.1837 158.416 15.1832L151.345 22.2543C153.109 24.0176 155.38 24.9785 157.898 24.9785V14.9785ZM158.416 15.1832C158.416 15.183 158.437 15.2037 158.466 15.2473C158.497 15.2917 158.529 15.3492 158.557 15.4167C158.585 15.4842 158.602 15.5468 158.612 15.5979C158.621 15.6481 158.621 15.675 158.621 15.6719H148.621C148.621 18.1847 149.565 20.4735 151.345 22.2543L158.416 15.1832ZM158.621 15.6719C158.621 15.6612 158.62 15.7514 158.565 15.8889C158.509 16.0278 158.441 16.1062 158.428 16.1187L151.275 9.1313C149.527 10.9206 148.621 13.1964 148.621 15.6719H158.621ZM158.387 16.1605C158.387 16.1603 158.367 16.1809 158.323 16.2105C158.279 16.2407 158.221 16.2729 158.154 16.3008C158.086 16.3287 158.023 16.3461 157.972 16.3559C157.922 16.3654 157.895 16.3652 157.898 16.3652V6.36523C155.386 6.36523 153.097 7.30867 151.316 9.08947L158.387 16.1605ZM154.911 23.4566L148.905 44.2867L158.513 47.0571L164.519 26.227L154.911 23.4566ZM148.893 44.3296C148.712 44.9777 148.558 45.5806 148.445 46.1121C148.352 46.5467 148.211 47.2705 148.211 48.0156H158.211C158.211 48.1487 158.204 48.2458 158.2 48.2937C158.195 48.3447 158.191 48.373 158.191 48.3734C158.191 48.3749 158.193 48.3604 158.199 48.3273C158.205 48.2947 158.214 48.2496 158.226 48.1907C158.279 47.9409 158.374 47.5575 158.525 47.0142L148.893 44.3296ZM148.211 48.0156C148.211 49.7266 148.949 51.0767 149.758 51.9757L157.191 45.286C157.649 45.7944 158.211 46.7343 158.211 48.0156H148.211ZM149.939 52.1664C150.784 53.0113 152.173 53.8945 154.031 53.8945V43.8945C155.499 43.8945 156.517 44.602 157.01 45.0953L149.939 52.1664ZM154.031 53.8945C155.939 53.8945 157.399 53.0306 158.335 52.2043L151.719 44.7059C151.992 44.4655 152.788 43.8945 154.031 43.8945V53.8945ZM158.203 52.3172C159.699 51.0871 161.093 49.241 162.385 47.2527L153.998 41.8059C152.829 43.6067 152.114 44.3778 151.852 44.593L158.203 52.3172ZM155.656 48.839L156.652 49.4249L161.723 40.8056L160.727 40.2196L155.656 48.839ZM154.851 42.6257C152.09 47.4348 150.247 47.8203 149.783 47.8203V57.8203C155.96 57.8203 160.386 53.0691 163.524 47.6048L154.851 42.6257ZM149.783 47.8203C149.607 47.8203 149.601 47.7958 149.705 47.8317C149.757 47.8498 149.827 47.88 149.907 47.9271C149.987 47.9745 150.062 48.0307 150.128 48.0916L143.345 55.4396C145.227 57.1772 147.553 57.8203 149.783 57.8203V47.8203ZM150.224 48.1833C150.318 48.274 150.441 48.4341 150.53 48.6513C150.616 48.8628 150.623 49.0138 150.623 49.041H140.623C140.623 51.3999 141.481 53.627 143.248 55.348L150.224 48.1833ZM150.623 49.041C150.623 49.0495 150.623 48.9455 150.668 48.7004C150.711 48.461 150.787 48.1365 150.913 47.7161L141.33 44.8581C140.932 46.1901 140.623 47.6321 140.623 49.041H150.623ZM150.922 47.6833L154.994 33.6793L145.392 30.8871L141.32 44.891L150.922 47.6833ZM154.996 33.6752C155.41 32.246 155.779 30.6635 155.779 29.2363H145.779C145.779 29.1443 145.788 29.2289 145.723 29.5665C145.662 29.8812 145.558 30.3168 145.391 30.8912L154.996 33.6752ZM155.779 29.2363C155.779 27.1528 154.802 25.4821 153.557 24.3675L146.889 31.82C146.675 31.6285 146.381 31.3031 146.145 30.8183C145.901 30.3165 145.779 29.7691 145.779 29.2363H155.779ZM153.557 24.3675C152.025 22.9972 150.202 22.5957 148.699 22.5957V32.5957C148.485 32.5957 147.678 32.5263 146.889 31.82L153.557 24.3675ZM148.699 22.5957C148.303 22.5957 147.867 22.6087 147.407 22.6307L147.882 32.6193C148.242 32.6022 148.51 32.5957 148.699 32.5957V22.5957ZM152.4 29.1704L152.781 27.9986L143.27 24.9077L142.889 26.0796L152.4 29.1704ZM148.826 31.3886L158.758 29.7773L157.156 19.9063L147.225 21.5177L148.826 31.3886ZM157.957 29.8418H159.715V19.8418H157.957V29.8418ZM189.191 41.08L193.554 43.523L193.564 43.5047L193.574 43.4863L189.191 41.08ZM186.611 43.51L184.254 39.1003L184.254 39.1003L186.611 43.51ZM179.111 44.44V39.44H174.111V44.44H179.111ZM179.111 52V57H184.111V52H179.111ZM173.981 52H168.981V57H173.981V52ZM173.981 30.94V25.94H168.981V30.94H173.981ZM186.551 31.81L188.787 27.3379L188.787 27.3379L186.551 31.81ZM184.091 35.77L180.632 39.3799L184.091 35.77ZM179.111 35.08V30.08H174.111V35.08H179.111ZM179.111 40.36H174.111V45.36H179.111V40.36ZM185.031 37.72C185.031 38.141 184.943 38.4273 184.808 38.6737L193.574 43.4863C194.559 41.6927 195.031 39.739 195.031 37.72H185.031ZM184.829 38.637C184.801 38.6856 184.699 38.8627 184.254 39.1003L188.968 47.9197C190.843 46.9173 192.461 45.4744 193.554 43.523L184.829 38.637ZM184.254 39.1003C184.008 39.2318 183.434 39.44 182.291 39.44V49.44C184.589 49.44 186.894 49.0282 188.968 47.9197L184.254 39.1003ZM182.291 39.44H179.111V49.44H182.291V39.44ZM174.111 44.44V52H184.111V44.44H174.111ZM179.111 47H173.981V57H179.111V47ZM178.981 52V30.94H168.981V52H178.981ZM173.981 35.94H182.291V25.94H173.981V35.94ZM182.291 35.94C183.416 35.94 184.023 36.1363 184.315 36.2821L188.787 27.3379C186.759 26.3237 184.526 25.94 182.291 25.94V35.94ZM184.315 36.2821C184.686 36.4676 184.775 36.6125 184.815 36.6815L193.508 31.7385C192.387 29.7675 190.736 28.3124 188.787 27.3379L184.315 36.2821ZM184.815 36.6815C184.915 36.8578 185.031 37.1562 185.031 37.72H195.031C195.031 35.6438 194.567 33.6022 193.508 31.7385L184.815 36.6815ZM181.901 45.36C183.566 45.36 185.78 44.9771 187.551 43.2799L180.632 36.0601C181.443 35.2829 182.196 35.36 181.901 35.36V45.36ZM187.551 43.2799C189.259 41.6425 189.811 39.5425 189.811 37.72H179.811C179.811 37.6707 179.818 37.4388 179.941 37.1056C180.072 36.7503 180.301 36.377 180.632 36.0601L187.551 43.2799ZM189.811 37.72C189.811 35.8975 189.259 33.7975 187.551 32.1601L180.632 39.3799C180.301 39.063 180.072 38.6897 179.941 38.3344C179.818 38.0012 179.811 37.7693 179.811 37.72H189.811ZM187.551 32.1601C185.78 30.4629 183.566 30.08 181.901 30.08V40.08C182.196 40.08 181.443 40.1571 180.632 39.3799L187.551 32.1601ZM181.901 30.08H179.111V40.08H181.901V30.08ZM174.111 35.08V40.36H184.111V35.08H174.111ZM179.111 45.36H181.901V35.36H179.111V45.36ZM195.882 51.19L193.511 55.5924L193.525 55.5999L193.539 55.6073L195.882 51.19ZM192.792 48.19L188.446 50.6635L188.461 50.6886L188.475 50.7135L192.792 48.19ZM192.822 39.1L197.138 41.6235L197.147 41.6092L197.155 41.5948L192.822 39.1ZM195.942 36.07L198.284 40.4873L198.284 40.4873L195.942 36.07ZM204.822 36.07L202.479 40.4873L202.479 40.4873L204.822 36.07ZM207.942 39.1L203.609 41.5948L203.617 41.6092L203.625 41.6235L207.942 39.1ZM207.912 48.19L203.607 45.6464L203.601 45.6564L203.595 45.6665L207.912 48.19ZM204.762 51.19L202.447 46.7583L202.433 46.7654L202.419 46.7727L204.762 51.19ZM202.812 46.72L199.227 43.2346L199.202 43.2606L199.177 43.2869L202.812 46.72ZM202.842 40.54L199.156 43.9186L199.181 43.9461L199.207 43.9731L202.842 40.54ZM197.892 40.54L201.53 43.9701L201.554 43.9445L201.578 43.9186L197.892 40.54ZM197.862 46.72L194.125 50.0418L194.15 50.0704L194.176 50.0986L197.862 46.72ZM200.322 47.24C199.417 47.24 198.754 47.0537 198.224 46.7727L193.539 55.6073C195.649 56.7263 197.946 57.24 200.322 57.24V47.24ZM198.252 46.7876C197.778 46.5323 197.414 46.19 197.108 45.6665L188.475 50.7135C189.689 52.79 191.386 54.4477 193.511 55.5924L198.252 46.7876ZM197.137 45.7165C196.892 45.2854 196.682 44.6456 196.682 43.63H186.682C186.682 46.0944 187.212 48.4946 188.446 50.6635L197.137 45.7165ZM196.682 43.63C196.682 42.6686 196.886 42.0542 197.138 41.6235L188.505 36.5765C187.237 38.7458 186.682 41.1514 186.682 43.63H196.682ZM197.155 41.5948C197.455 41.0734 197.812 40.7376 198.284 40.4873L193.599 31.6527C191.431 32.8024 189.708 34.4866 188.489 36.6052L197.155 41.5948ZM198.284 40.4873C198.814 40.2063 199.477 40.02 200.382 40.02V30.02C198.006 30.02 195.709 30.5337 193.599 31.6527L198.284 40.4873ZM200.382 40.02C201.286 40.02 201.949 40.2063 202.479 40.4873L207.164 31.6527C205.054 30.5337 202.757 30.02 200.382 30.02V40.02ZM202.479 40.4873C202.951 40.7376 203.308 41.0734 203.609 41.5948L212.275 36.6052C211.055 34.4866 209.332 32.8024 207.164 31.6527L202.479 40.4873ZM203.625 41.6235C203.877 42.0542 204.082 42.6686 204.082 43.63H214.082C214.082 41.1514 213.526 38.7458 212.258 36.5765L203.625 41.6235ZM204.082 43.63C204.082 44.5667 203.878 45.1874 203.607 45.6464L212.216 50.7336C213.505 48.5526 214.082 46.1333 214.082 43.63H204.082ZM203.595 45.6665C203.312 46.1515 202.957 46.4917 202.447 46.7583L207.077 55.6217C209.247 54.4883 210.992 52.8285 212.228 50.7135L203.595 45.6665ZM202.419 46.7727C201.889 47.0537 201.226 47.24 200.322 47.24V57.24C202.697 57.24 204.994 56.7263 207.104 55.6073L202.419 46.7727ZM200.322 52.8C202.694 52.8 204.834 51.8612 206.447 50.1531L199.177 43.2869C199.257 43.2017 199.427 43.0568 199.69 42.9429C199.953 42.8285 200.185 42.8 200.322 42.8V52.8ZM206.397 50.2054C208.275 48.274 208.862 45.824 208.862 43.63H198.862C198.862 43.8748 198.829 43.906 198.865 43.7988C198.884 43.7421 198.921 43.6545 198.984 43.5494C199.047 43.4432 199.129 43.3353 199.227 43.2346L206.397 50.2054ZM208.862 43.63C208.862 41.4726 208.305 39.0423 206.477 37.1069L199.207 43.9731C199.108 43.8689 199.029 43.76 198.968 43.6559C198.908 43.5532 198.875 43.4699 198.859 43.4198C198.828 43.3263 198.862 43.3722 198.862 43.63H208.862ZM206.528 37.1614C204.917 35.4043 202.758 34.46 200.382 34.46V44.46C200.246 44.46 200.003 44.4317 199.722 44.3082C199.44 44.1846 199.252 44.0237 199.156 43.9186L206.528 37.1614ZM200.382 34.46C198.018 34.46 195.838 35.3806 194.206 37.1614L201.578 43.9186C201.472 44.0343 201.278 44.1961 200.999 44.3171C200.723 44.4369 200.494 44.46 200.382 44.46V34.46ZM194.254 37.1099C192.414 39.0618 191.902 41.5234 191.902 43.63H201.902C201.902 43.3407 201.938 43.277 201.911 43.3631C201.896 43.4107 201.862 43.4984 201.798 43.6103C201.733 43.7238 201.645 43.8481 201.53 43.9701L194.254 37.1099ZM191.902 43.63C191.902 45.7158 192.401 48.1028 194.125 50.0418L201.599 43.3982C201.697 43.5085 201.772 43.6187 201.826 43.7171C201.879 43.8141 201.905 43.8876 201.917 43.924C201.937 43.9893 201.902 43.9136 201.902 43.63H191.902ZM194.176 50.0986C195.787 51.8557 197.946 52.8 200.322 52.8V42.8C200.458 42.8 200.701 42.8283 200.982 42.9518C201.263 43.0754 201.451 43.2363 201.548 43.3414L194.176 50.0986ZM216.933 38.05H211.933V54.8697L221.121 40.7813L216.933 38.05ZM219.183 35.89L221.685 40.2193L221.72 40.1987L221.756 40.1775L219.183 35.89ZM222.183 35.08H227.183V30.08H222.183V35.08ZM222.183 40.51V45.51H227.183V40.51H222.183ZM217.893 41.35L221.118 45.1715L221.152 45.1425L221.186 45.1129L217.893 41.35ZM216.933 52V57H221.933V52H216.933ZM211.803 52H206.803V57H211.803V52ZM211.803 35.26V30.26H206.803V35.26H211.803ZM216.933 35.26H221.933V30.26H216.933V35.26ZM221.121 40.7813C221.317 40.4807 221.503 40.3242 221.685 40.2193L216.682 31.5607C215.064 32.4958 213.749 33.7793 212.745 35.3187L221.121 40.7813ZM221.756 40.1775C221.841 40.1266 221.944 40.08 222.183 40.08V30.08C220.223 30.08 218.326 30.5734 216.611 31.6025L221.756 40.1775ZM217.183 35.08V40.51H227.183V35.08H217.183ZM222.183 35.51H220.773V45.51H222.183V35.51ZM220.773 35.51C218.874 35.51 216.516 35.911 214.601 37.5871L221.186 45.1129C220.87 45.3893 220.59 45.4917 220.493 45.52C220.412 45.5437 220.482 45.51 220.773 45.51V35.51ZM214.669 37.5285C212.346 39.4888 211.933 42.3086 211.933 44.23H221.933C221.933 43.8958 221.976 43.8787 221.917 44.0561C221.847 44.2659 221.634 44.7357 221.118 45.1715L214.669 37.5285ZM211.933 44.23V52H221.933V44.23H211.933ZM216.933 47H211.803V57H216.933V47ZM216.803 52V35.26H206.803V52H216.803ZM211.803 40.26H216.933V30.26H211.803V40.26ZM211.933 35.26V38.05H221.933V35.26H211.933ZM233.965 47.65H238.965V42.65H233.965V47.65ZM233.965 52V57H238.965V52H233.965ZM227.005 50.65L223.693 54.395L223.713 54.413L223.734 54.4308L227.005 50.65ZM225.445 39.52H230.445V34.52H225.445V39.52ZM223.405 39.52H218.405V44.52H223.405V39.52ZM223.405 35.26V30.26H218.405V35.26H223.405ZM225.445 35.26V40.26H230.445V35.26H225.445ZM225.445 31.18V26.18H220.445V31.18H225.445ZM230.575 31.18H235.575V26.18H230.575V31.18ZM230.575 35.26H225.575V40.26H230.575V35.26ZM233.935 35.26H238.935V30.26H233.935V35.26ZM233.935 39.52V44.52H238.935V39.52H233.935ZM230.575 39.52V34.52H225.575V39.52H230.575ZM230.935 47.32L227.557 51.0058L227.557 51.0058L230.935 47.32ZM228.965 47.65V52H238.965V47.65H228.965ZM233.965 47H231.355V57H233.965V47ZM231.355 47C230.271 47 230.131 46.7428 230.277 46.8692L223.734 54.4308C225.96 56.3572 228.72 57 231.355 57V47ZM230.318 46.905C230.41 46.986 230.477 47.0691 230.52 47.1361C230.562 47.2005 230.568 47.2283 230.556 47.195C230.528 47.1134 230.445 46.8109 230.445 46.18H220.445C220.445 48.9713 221.148 52.1437 223.693 54.395L230.318 46.905ZM230.445 46.18V39.52H220.445V46.18H230.445ZM225.445 34.52H223.405V44.52H225.445V34.52ZM228.405 39.52V35.26H218.405V39.52H228.405ZM223.405 40.26H225.445V30.26H223.405V40.26ZM230.445 35.26V31.18H220.445V35.26H230.445ZM225.445 36.18H230.575V26.18H225.445V36.18ZM225.575 31.18V35.26H235.575V31.18H225.575ZM230.575 40.26H233.935V30.26H230.575V40.26ZM228.935 35.26V39.52H238.935V35.26H228.935ZM233.935 34.52H230.575V44.52H233.935V34.52ZM225.575 39.52V46.24H235.575V39.52H225.575ZM225.575 46.24C225.575 47.3965 225.839 49.4313 227.557 51.0058L234.314 43.6342C235.552 44.7687 235.575 46.0835 235.575 46.24H225.575ZM227.557 51.0058C229.188 52.5008 231.154 52.65 232.135 52.65V42.65C232.158 42.65 232.389 42.6495 232.741 42.7465C233.102 42.8457 233.711 43.0817 234.314 43.6342L227.557 51.0058ZM232.135 52.65H233.965V42.65H232.135V52.65ZM236.763 39.07L232.305 36.8065L232.291 36.834L232.277 36.8616L236.763 39.07ZM239.433 36.07L242.083 40.31L242.083 40.31L239.433 36.07ZM246.273 35.74L243.879 40.1295L243.899 40.1407L243.92 40.1518L246.273 35.74ZM248.343 37.63L244.085 40.2505L253.343 55.2952V37.63H248.343ZM248.343 35.26V30.26H243.343V35.26H248.343ZM253.473 35.26H258.473V30.26H253.473V35.26ZM253.473 52V57H258.473V52H253.473ZM248.343 52H243.343V57H248.343V52ZM248.343 49.63H253.343V32.565L244.133 46.9317L248.343 49.63ZM246.243 51.52L243.89 47.1082L243.869 47.1193L243.849 47.1305L246.243 51.52ZM239.433 51.19L236.729 55.3959L236.756 55.4131L236.783 55.43L239.433 51.19ZM236.763 48.16L232.264 50.3414L232.284 50.3826L232.305 50.4235L236.763 48.16ZM247.263 40.6L243.631 44.036L243.655 44.0616L243.679 44.0868L247.263 40.6ZM242.073 40.6L238.489 37.1132L238.488 37.1146L242.073 40.6ZM242.073 46.66L238.395 50.0474L238.442 50.0977L238.489 50.1468L242.073 46.66ZM247.263 46.66L243.679 43.1732L243.655 43.1984L243.631 43.224L247.263 46.66ZM240.803 43.6C240.803 42.5037 241.005 41.7744 241.249 41.2784L232.277 36.8616C231.241 38.9656 230.803 41.2563 230.803 43.6H240.803ZM241.221 41.3335C241.514 40.7577 241.813 40.4788 242.083 40.31L236.783 31.83C234.813 33.0612 233.332 34.7823 232.305 36.8065L241.221 41.3335ZM242.083 40.31C242.372 40.1295 242.696 40.02 243.183 40.02V30.02C240.91 30.02 238.734 30.6105 236.783 31.83L242.083 40.31ZM243.183 40.02C243.675 40.02 243.853 40.1157 243.879 40.1295L248.667 31.3505C246.932 30.4043 245.051 30.02 243.183 30.02V40.02ZM243.92 40.1518C244.035 40.2132 244.084 40.2557 244.094 40.2649C244.102 40.2721 244.094 40.2654 244.085 40.2505L252.601 35.0095C251.605 33.3905 250.217 32.1771 248.626 31.3282L243.92 40.1518ZM253.343 37.63V35.26H243.343V37.63H253.343ZM248.343 40.26H253.473V30.26H248.343V40.26ZM248.473 35.26V52H258.473V35.26H248.473ZM253.473 47H248.343V57H253.473V47ZM253.343 52V49.63H243.343V52H253.343ZM244.133 46.9317C244.129 46.9389 244.121 46.9502 244.098 46.971C244.073 46.9935 244.012 47.0433 243.89 47.1082L248.596 55.9318C250.173 55.0906 251.545 53.9 252.552 52.3283L244.133 46.9317ZM243.849 47.1305C243.823 47.1443 243.645 47.24 243.153 47.24V57.24C245.021 57.24 246.902 56.8557 248.637 55.9095L243.849 47.1305ZM243.153 47.24C242.701 47.24 242.384 47.138 242.083 46.95L236.783 55.43C238.722 56.642 240.885 57.24 243.153 57.24V47.24ZM242.137 46.9841C241.833 46.7892 241.519 46.4822 241.221 45.8965L232.305 50.4235C233.327 52.4378 234.792 54.1508 236.729 55.3959L242.137 46.9841ZM241.262 45.9786C241.004 45.4463 240.803 44.694 240.803 43.6H230.803C230.803 45.946 231.242 48.2337 232.264 50.3414L241.262 45.9786ZM253.343 43.63C253.343 41.3769 252.681 38.9987 250.847 37.1132L243.679 44.0868C243.606 44.0113 243.538 43.9247 243.48 43.8315C243.423 43.7389 243.386 43.6554 243.363 43.5912C243.318 43.4644 243.343 43.4542 243.343 43.63H253.343ZM250.895 37.164C249.249 35.4241 247.075 34.49 244.683 34.49V44.49C244.575 44.49 244.365 44.4672 244.117 44.3605C243.869 44.2536 243.707 44.1164 243.631 44.036L250.895 37.164ZM244.683 34.49C242.295 34.49 240.138 35.4191 238.489 37.1132L245.657 44.0868C245.597 44.1484 245.452 44.2708 245.222 44.3687C244.991 44.4671 244.792 44.49 244.683 44.49V34.49ZM238.488 37.1146C236.65 39.0053 236.023 41.3919 236.023 43.6H246.023C246.023 43.409 246.05 43.4135 246.005 43.5418C245.982 43.6076 245.943 43.6967 245.881 43.7977C245.819 43.8996 245.743 43.9974 245.658 44.0854L238.488 37.1146ZM236.023 43.6C236.023 45.8215 236.654 48.1569 238.395 50.0474L245.751 43.2726C245.815 43.342 245.872 43.4197 245.92 43.5009C245.968 43.5815 245.997 43.6517 246.015 43.7022C246.049 43.8017 246.023 43.7883 246.023 43.6H236.023ZM238.489 50.1468C240.138 51.8409 242.295 52.77 244.683 52.77V42.77C244.792 42.77 244.991 42.7929 245.222 42.8913C245.452 42.9892 245.597 43.1116 245.657 43.1732L238.489 50.1468ZM244.683 52.77C247.075 52.77 249.249 51.8359 250.895 50.096L243.631 43.224C243.707 43.1436 243.869 43.0064 244.117 42.8995C244.365 42.7928 244.575 42.77 244.683 42.77V52.77ZM250.847 50.1468C252.681 48.2613 253.343 45.8831 253.343 43.63H243.343C243.343 43.8058 243.318 43.7956 243.363 43.6688C243.386 43.6046 243.423 43.5211 243.48 43.4285C243.538 43.3353 243.606 43.2487 243.679 43.1732L250.847 50.1468ZM262.314 29.8H267.314V24.8H262.314V29.8ZM262.314 52V57H267.314V52H262.314ZM257.184 52H252.184V57H257.184V52ZM257.184 29.8V24.8H252.184V29.8H257.184ZM257.314 29.8V52H267.314V29.8H257.314ZM262.314 47H257.184V57H262.314V47ZM262.184 52V29.8H252.184V52H262.184ZM257.184 34.8H262.314V24.8H257.184V34.8Z" fill="white" mask="url(#path-1-outside-1_61_125)"/>
</g>
<defs>
<clipPath id="clip0_61_125">
<rect width="270" height="62" fill="white"/>
</clipPath>
</defs>
</svg>
